<svg width="141" height="127" viewBox="0 0 141 127" fill="none" xmlns="http://www.w3.org/2000/svg">
<path opacity="0.3" d="M23.4569 85.9939C35.909 84.5055 48.3654 83.0313 60.8176 81.5429C69.0922 80.5639 77.3859 79.5714 85.4863 77.6354C99.977 74.1733 114.147 67.6404 129.017 68.5109C129.93 53.1197 121.087 37.9148 107.944 29.839C94.8097 21.7681 75.4797 14.6173 60.805 19.3299C43.8978 24.7645 34.3904 34.8342 25.8183 50.3861C21.8027 57.6678 15.6859 72.037 18.8419 79.7373C20.5247 83.8448 21.6795 87.3028 23.3346 85.6918" fill="#24B243"/>
<path d="M38.7801 95.2019C37.9647 94.0362 37.611 92.7498 37.6542 91.3306C37.6888 90.1175 39.1918 89.7343 40.0493 90.3216C41.4683 91.2896 42.1555 92.9036 42.0958 94.5878C42.0669 95.611 40.8917 96.0861 40.0484 95.7964C38.6483 95.3144 36.8097 93.8886 37.0697 92.2088C37.3635 90.3141 39.72 90.025 41.1195 90.8117C42.5132 91.594 43.1994 93.5864 41.7138 94.6766C40.3717 95.6631 38.1617 94.7502 38.4151 92.9451C38.6855 91.0326 41.6664 91.394 41.396 93.3065C41.4947 92.6416 40.5645 91.6753 39.9452 92.2587C39.823 92.4803 39.6963 92.7077 39.5741 92.9292C39.5539 93.0896 39.5794 93.2385 39.6609 93.3745C39.7575 93.4664 39.7648 93.4812 39.6769 93.4144C39.5845 93.3534 39.5948 93.352 39.6989 93.4219C39.6169 93.3595 39.5315 93.3501 39.5271 93.3559C39.5639 93.3562 39.5948 93.352 39.6274 93.3213C39.9707 93.0644 40.0735 92.6616 39.9417 92.1174C40.0047 92.1561 40.1548 92.4088 40.1723 92.4222C40.4604 92.7245 40.7849 92.8695 41.1712 93.0061C40.4853 93.4094 39.8097 93.8113 39.1238 94.2147C39.1297 93.988 39.051 93.6414 38.872 93.3295C38.7527 93.1093 38.5537 92.921 38.2342 92.6965C39.0345 92.3617 39.8289 92.0224 40.6293 91.6875C40.6122 92.2573 40.8317 92.9052 41.1643 93.38C41.6282 94.0472 41.544 94.9729 40.8824 95.478C40.2549 95.9627 39.2439 95.8691 38.7801 95.2019Z" fill="#24B243"/>
<path d="M51.0925 87.7311C52.9015 89.1715 50.7144 91.9017 48.8678 90.5716C47.6324 89.6784 47.2058 87.3932 48.2209 86.2043C49.4942 84.7122 51.5943 85.5508 52.1929 87.2084C52.7438 88.7464 52.2108 90.5054 51.3144 91.7938C50.7078 92.6644 49.5665 92.4625 48.9289 91.7927C47.5924 90.3879 47.2753 88.0195 48.2202 86.3147C48.6122 85.6046 49.3382 85.1485 50.1665 85.4824C51.7717 86.1203 52.4319 87.8063 51.9722 89.4083C51.7476 90.1902 50.7206 90.5191 50.0259 90.2406C49.2094 89.9156 48.969 89.0762 49.1936 88.2943C49.1817 88.3222 49.1742 88.3442 49.168 88.3766C49.1776 88.4856 49.1776 88.4856 49.1636 88.3825C49.1636 88.3825 49.1845 88.3428 49.1085 88.2481C49.218 88.3961 49.0394 88.2417 49.0455 88.2094C49.0244 88.2858 49.421 88.421 49.0598 88.2757C49.7051 87.9988 50.3607 87.7204 51.006 87.4434C50.4829 88.3868 50.5674 89.2002 51.3146 89.9811C50.521 89.9788 49.7228 89.9824 48.9292 89.98C49.1002 89.7308 49.2597 89.4359 49.3414 89.1096C49.3853 88.9302 49.4235 88.7096 49.4247 88.5256C49.4261 88.5359 49.3499 88.0524 49.3969 88.2824C49.3112 87.8842 49.3378 88.3115 49.4602 88.2843C49.7945 88.5015 50.1631 88.4303 50.566 88.0707C50.6061 88.018 50.6404 87.9608 50.6629 87.8947C50.5825 87.8058 50.7041 88.1202 50.7125 88.1821C50.7044 88.0834 50.7203 88.1233 50.7692 88.29C50.6919 88.185 50.5967 88.1034 50.4882 88.0393C50.2366 88.0053 49.9806 87.9771 49.729 87.943C49.4192 88.2531 49.1094 88.5632 48.8054 88.8778C48.8391 89.1254 48.8742 89.3833 48.9079 89.6309C48.8993 89.6058 48.8906 89.5807 48.8761 89.5512C49.0352 89.7555 49.1958 89.97 49.3549 90.1743C49.3315 90.1565 49.308 90.1386 49.2846 90.1208C47.77 88.9136 49.5779 86.524 51.0925 87.7311Z" fill="#24B243"/>
<path d="M65.241 86.0315C65.0095 87.4185 63.616 87.9496 62.3915 87.407C61.4123 86.9676 60.7221 85.7954 60.6112 84.7491C60.4877 83.6101 61.0753 82.4846 62.1692 82.0678C63.1686 81.6901 64.2847 82.1318 64.9481 82.9137C65.6684 83.7667 65.725 84.9936 65.0814 85.9008C64.3813 86.8945 63.0377 87.214 61.9166 86.8517C59.5318 86.0834 59.6368 82.6856 61.6263 81.5532C62.9817 80.7803 64.4479 81.5159 65.0574 82.8673C65.5537 83.9662 65.645 85.2935 65.3678 86.4608C65.1859 87.2474 64.5618 87.8735 63.6967 87.7705C62.9595 87.6817 62.2005 86.8919 62.3869 86.0994C62.4658 85.7524 62.5329 85.3965 62.5161 85.0416C62.5101 84.8427 62.4806 84.6261 62.4274 84.4284C62.4087 84.3679 62.2617 84.099 62.277 84.0181C62.2523 84.1843 63.1346 84.143 63.1229 84.1341C63.1987 84.0345 63.1706 84.0593 63.0606 84.2161C63.0739 84.1985 63.0873 84.181 63.1006 84.1634C62.9646 84.4761 63.1839 84.0417 62.9466 84.074C62.926 84.0768 62.8911 84.0133 62.8543 84.013C62.632 84.0013 62.5236 84.3628 62.5182 84.5159C62.5172 84.6631 62.5727 84.7239 62.625 84.8376C62.6688 84.8894 62.7202 84.9192 62.7907 84.9359C62.6086 84.8713 62.6278 84.8582 62.8543 84.901C62.9586 84.9341 63.0632 84.9303 63.1621 84.8853C63.3436 84.8291 63.4548 84.7194 63.5001 84.5504C63.7311 84.356 63.3899 84.2817 63.5814 84.492C63.5317 84.4357 63.6921 84.6871 63.6921 84.6871C63.7607 84.7671 63.768 84.7819 63.708 84.727C63.5233 84.605 63.3055 84.5873 63.0663 84.6829C62.862 84.8421 62.6474 85.0027 62.4432 85.1618C62.4655 85.1325 62.4877 85.1032 62.5203 85.0725C62.4216 85.3119 62.3242 85.5615 62.2254 85.8009C62.2301 85.7582 62.2407 85.72 62.2498 85.6715C62.5894 83.7654 65.5703 84.1268 65.241 86.0315Z" fill="#24B243"/>
<path d="M71.0286 80.4153C69.5155 79.2185 69.2422 77.1331 70.3481 75.5692C70.8237 74.895 71.8122 74.8236 72.4527 75.2828C74.9821 77.1137 75.4921 80.5907 73.9125 83.191C73.5954 83.7175 72.706 83.9384 72.1658 83.6756C69.6133 82.4468 68.6023 78.8016 70.6723 76.639C71.2802 76.0098 72.491 75.7189 73.0577 76.64C73.9478 78.0846 73.7388 79.6367 72.5045 80.7977C71.9118 81.3459 70.8606 81.1107 70.4066 80.5157C69.8752 79.8157 70.0958 78.9661 70.6885 78.4178C70.5536 78.5465 70.624 78.3688 70.6793 78.4664C71.473 78.4687 72.2711 78.4652 73.0647 78.4675C72.4346 79.1259 72.3257 80.4489 73.2812 80.9073C72.6985 81.0655 72.1114 81.2294 71.5346 81.392C72.2864 80.1601 71.7541 78.4882 70.6462 77.6828C71.3478 77.5873 72.0493 77.4918 72.7508 77.3963C72.5874 77.6235 72.6534 77.8772 72.8599 78.0435C74.3555 79.227 72.5476 81.6166 71.0286 80.4153Z" fill="#24B243"/>
<path d="M52.3451 79.1384C51.3868 79.5473 50.2329 79.9093 49.1717 79.8331C48.0414 79.7505 47.1549 78.8728 47.0342 77.7544C46.9245 76.7553 47.3833 75.7262 48.2102 75.1618C49.1081 74.5405 50.1759 74.5107 51.2228 74.5206C52.196 74.53 52.777 75.7487 52.4314 76.5681C51.9077 77.8162 50.9279 78.8007 49.6525 79.2738C48.8923 79.5559 48.0124 79.229 47.6921 78.4582C47.3877 77.7273 47.743 76.7858 48.5076 76.4979C49.0582 76.2968 49.4196 75.9797 49.6469 75.4496C50.0503 76.1356 50.4522 76.8111 50.8555 77.4971C50.5979 77.4953 50.1911 77.556 49.995 77.5826C49.5985 77.6418 49.9486 77.7046 49.9568 77.5721C50.027 77.4312 50.0284 77.4415 49.9521 77.6147C49.9833 77.5737 49.9925 77.5252 49.9958 77.4722C49.9991 77.4192 49.9965 77.3618 49.9688 77.313C49.8573 77.034 49.6477 76.8838 49.3446 76.8568C49.3432 76.8465 49.9326 76.7768 49.9577 76.7681C50.3882 76.6885 50.7838 76.5453 51.1855 76.3698C52.9737 75.6116 54.123 78.3816 52.3451 79.1384Z" fill="#24B243"/>
<path d="M40.5653 81.992C39.9923 81.14 39.4192 80.2881 38.8462 79.4361C38.3067 78.6374 38.5304 77.5404 39.4637 77.1402C41.1131 76.4428 43.2047 77.4506 43.524 79.2566C43.6687 80.088 43.442 80.97 42.8899 81.6231C42.2339 82.4006 41.3733 82.7174 40.3794 82.7108C39.5696 82.7054 38.9809 81.7768 39.0697 81.0397C39.1757 80.1584 39.9265 79.7304 40.7408 79.7299C40.5833 79.7303 40.6008 79.7437 40.4562 79.8002C40.579 79.6994 40.6086 79.6849 40.5345 79.758C40.4662 79.8356 40.4841 79.8121 40.588 79.6877C40.4965 79.9418 40.6389 79.5599 40.5804 79.7097C40.561 79.7597 40.5621 79.8068 40.5853 79.8614C40.5629 79.6963 40.5601 79.6757 40.5741 79.7789C40.6458 80.0738 40.6093 79.8056 40.5605 79.8333C40.6702 79.9444 40.6833 79.9637 40.594 79.8865C40.5016 79.8255 40.5237 79.833 40.6498 79.9104C40.6057 79.8954 40.5661 79.8745 40.522 79.8595C40.6794 79.8959 40.6749 79.9018 40.5028 79.8727C40.6013 79.9013 40.8834 79.7736 40.5999 79.891C40.8052 79.1222 41.012 78.3638 41.2173 77.595C41.7904 78.447 42.3634 79.2989 42.9365 80.1509C43.3855 80.8253 43.3264 81.7423 42.6546 82.2488C42.0491 82.741 41.0144 82.6664 40.5653 81.992Z" fill="#24B243"/>
<path d="M63.0562 75.5739C62.3023 75.7868 61.6238 75.7426 60.9552 75.3081C60.5168 75.021 60.1592 74.5548 59.9975 74.062C59.5123 72.6201 60.4569 71.1833 61.9601 70.9945C63.4825 70.7926 64.7924 72.0013 64.7308 73.5176C64.6815 74.738 63.6507 75.8502 62.4322 75.9688C61.6542 76.0431 60.8199 75.5105 60.7444 74.6854C60.6745 73.9015 61.1924 73.0745 62.0278 72.9975C62.2974 72.9714 61.6969 73.1529 62.0027 73.0062C62.1061 72.9553 62.0529 72.9889 61.8371 73.1023C61.96 73.0015 61.9288 73.0425 61.7333 73.2268C61.7614 73.2019 61.7881 73.1668 61.8104 73.1375C61.8817 73.0437 61.8475 73.1009 61.7194 73.318C61.7447 73.2725 61.7642 73.2226 61.7837 73.1726C61.7625 73.2491 61.7459 73.3196 61.7306 73.4005C61.7398 73.352 61.7475 73.2931 61.7508 73.2401C61.7639 73.4906 61.7606 73.5435 61.7396 73.3888C61.7597 73.4596 61.7754 73.5363 61.7955 73.6071C61.934 73.8141 61.9558 73.8585 61.8595 73.7297C62.0395 73.8944 62.0878 73.9403 61.9882 73.8646C61.89 73.7991 61.9458 73.8231 62.1525 73.9525C62.0086 73.8986 62.0468 73.9091 62.2819 73.977C62.1598 73.9673 62.1642 73.9615 62.3012 73.9639C62.6655 73.8617 61.7935 74.1328 62.4442 73.9339C62.4191 73.9425 62.3896 73.9571 62.3645 73.9658C62.515 73.9137 62.6334 73.8188 62.7212 73.6913C62.6454 73.7909 62.6543 73.7792 62.7317 73.6531C62.8075 73.5534 62.845 73.4432 62.8533 73.3108C62.8375 73.4653 62.835 73.4078 62.8411 73.1443C62.861 73.2519 62.8537 73.2372 62.8193 73.1C62.7746 72.9642 62.7776 72.948 62.8182 73.0528C62.6769 72.8251 62.6492 72.7764 62.7352 72.9065C62.9047 73.1094 62.4305 72.6748 62.6518 72.8338C62.873 72.9928 62.3125 72.6961 62.5549 72.7787C62.2902 72.7254 62.23 72.7073 62.3859 72.7334C62.2255 72.7132 62.0708 72.7343 61.9172 72.8024C62.3067 72.6916 62.6574 72.6439 63.0511 72.7952C63.3961 72.9374 63.7503 73.2623 63.8775 73.618C64.1233 74.3043 63.8647 75.3377 63.0562 75.5739Z" fill="#24B243"/>
<path d="M33.8618 78.5224C32.8816 79.1181 31.7468 79.2726 30.6766 78.7825C29.6284 78.2999 28.8673 77.379 28.7101 76.2235C28.602 75.4291 29.1874 74.6349 29.9935 74.5357C31.255 74.385 32.7112 74.6229 33.2102 75.9736C33.6573 77.1737 32.949 78.7254 31.5804 78.8224C30.7745 78.8848 30.0063 78.3746 29.8926 77.5389C29.7887 76.7755 30.3643 75.9091 31.176 75.8511C30.6006 76.024 30.3319 76.3653 30.3638 76.8706C30.4182 77.1154 30.5494 77.3077 30.762 77.4416C30.7705 77.5035 30.4804 77.4957 30.4023 77.5011C30.8302 76.9385 31.258 76.3759 31.6858 75.8133C31.7195 76.0609 31.6197 75.7908 31.7015 75.89C31.7333 75.9697 31.7333 75.9697 31.697 75.8958C31.6504 75.8234 31.6607 75.8219 31.7073 75.8944C31.7774 75.9847 31.754 75.9669 31.6443 75.8557C31.6794 75.8824 31.7101 75.9151 31.7453 75.9418C31.7805 75.9685 31.8156 75.9953 31.8508 76.022C31.7099 75.9519 31.6923 75.9385 31.7936 75.9878C31.817 76.0056 32.0726 76.1074 31.9183 76.0548C31.7479 75.9992 32.0787 76.075 32.1214 76.0797C31.9242 76.0593 32.0754 76.128 32.1302 76.068C31.9945 76.1128 31.9797 76.12 32.0801 76.0854C32.179 76.0404 32.1657 76.0579 32.0386 76.1278C32.7275 75.7083 33.6124 75.7244 34.1365 76.4097C34.5963 77.0091 34.5553 78.097 33.8618 78.5224Z" fill="#24B243"/>
<path d="M44.2955 63.7313C44.1976 63.3978 44.5374 63.8875 44.2578 63.6471C44.0909 63.5017 43.9284 63.3504 43.7705 63.1933C43.3741 62.7901 43.0814 62.2993 43.0189 61.7246C42.9066 60.6681 43.6197 59.7304 44.5909 59.3776C45.6316 58.9943 46.7311 59.2754 47.4812 60.077C48.164 60.809 48.4048 61.806 48.4896 62.7769C48.5569 63.5033 48.1927 64.031 47.5764 64.3671C46.975 64.6958 46.2802 64.8797 45.5981 64.9253C44.7688 64.9698 44.0578 64.4939 43.9103 63.6418C43.6652 62.1883 44.6676 60.9065 46.0698 60.6316C46.863 60.4764 47.6478 61.1472 47.7576 61.9151C47.8727 62.7611 47.2719 63.4418 46.4742 63.6029C46.6172 63.5729 46.7516 63.5178 46.8173 63.3828C46.871 63.2757 46.8261 62.9455 46.8771 63.2433C46.3145 62.8155 45.7519 62.3877 45.1893 61.9599C45.7211 61.9295 45.9483 61.8619 46.4285 61.6074C46.1276 62.1369 45.8208 62.662 45.5153 63.1975C45.477 62.7614 45.4691 62.3947 45.2812 62.0945C45.332 62.1979 45.3086 62.1801 45.2094 62.0307C45.2399 62.1001 45.2985 62.1447 45.3763 62.1761C45.4556 62.2179 45.5364 62.2331 45.6234 62.2161C45.4539 62.2444 45.4539 62.2444 45.6176 62.2116C45.9553 61.9134 45.9994 61.6973 45.9569 61.2302C45.9426 61.1638 45.9032 61.1061 45.846 61.0719C45.9236 61.1401 46.0012 61.2084 46.0788 61.2767C46.5033 61.655 46.9086 62.0464 47.0742 62.607C47.3106 63.3787 47.059 64.2326 46.2587 64.5674C45.559 64.8308 44.5333 64.5133 44.2955 63.7313Z" fill="#24B243"/>
<path d="M57.7705 67.9293C56.4691 67.6703 55.29 66.7274 55.0974 65.3508C54.8989 63.9698 55.8012 62.6859 57.1288 62.3265C58.5125 61.9543 59.947 62.8047 60.1494 64.2535C60.3352 65.5417 59.4732 66.9672 58.1016 67.0803C57.3222 67.1444 56.4907 66.6323 56.4137 65.7969C56.3453 65.0234 56.8604 64.1757 57.6972 64.1091C57.8268 64.0967 57.8269 64.0967 57.6941 64.1253C57.591 64.1393 57.492 64.1843 57.412 64.253C57.3616 64.3071 57.3053 64.3568 57.2549 64.411C57.3248 64.3069 57.3307 64.3113 57.2519 64.4271C57.1848 64.5519 57.1789 64.5474 57.2312 64.43C57.2132 64.4902 57.1906 64.5563 57.1784 64.621C57.2451 64.3388 57.2177 64.9099 57.1726 64.6166C57.1964 64.792 57.2677 64.9294 57.3994 65.0481C57.477 65.1163 57.7986 65.2407 57.5635 65.1728C57.6179 65.1865 58.0727 65.2086 57.8179 65.2275C57.8739 65.2146 57.9344 65.1959 57.9846 65.1786C57.8606 65.2322 57.8502 65.2336 57.9626 65.1711C58.1795 65.1048 57.8638 65.1792 57.8692 65.2573C57.9107 65.2149 57.9626 65.171 58.0041 65.1286C57.9253 65.2444 57.9194 65.24 57.9893 65.1359C58.0475 65.0229 58.0533 65.0274 58.0024 65.1551C58.016 65.1007 58.0341 65.0405 58.0536 64.9905C58.0414 64.8241 58.0417 64.7873 58.0571 64.9008C58.077 65.0084 58.0625 64.9788 58.0238 64.8107C58.1621 65.0546 57.9468 64.6688 58.0164 64.8327C58.0904 64.9908 58.1685 64.9854 58.0088 64.8548C58.1319 64.9484 58.3288 65.0056 58.0541 64.9169C58.1364 64.9425 58.4686 65.0286 58.1288 64.9645C58.895 65.1125 59.5767 65.7973 59.4386 66.6357C59.3188 67.377 58.5969 68.0952 57.7705 67.9293Z" fill="#24B243"/>
<path d="M74.1453 68.2642C72.8155 68.0669 71.3878 67.305 71.1588 65.8545C70.913 64.2803 72.338 63.0145 73.8669 63.169C75.3958 63.3234 76.2866 64.8887 75.7162 66.2956C75.2313 67.4807 73.7406 68.2247 72.5398 67.6631C71.8323 67.3286 71.3594 66.4787 71.7075 65.7168C72.0273 65.0165 72.9008 64.5246 73.6538 64.8845C73.7654 64.9323 73.7551 64.9338 73.6184 64.8946C73.5082 64.857 73.4022 64.8504 73.2843 64.8718C73.5628 64.8338 72.9654 64.9992 73.2282 64.8846C73.1647 64.9196 73.1011 64.9545 73.0331 64.9952C73.156 64.8944 73.1248 64.9355 72.944 65.1124C72.99 65.0642 73.1239 64.8515 72.9928 65.0848C72.9541 65.1479 72.9226 65.2257 72.9163 65.2948C72.9226 65.2257 72.9364 65.5968 72.9755 65.6913C73.0538 65.8803 73.219 66.0523 73.4129 66.1257C73.6232 66.1654 73.6673 66.1804 73.5599 66.1635C73.4481 66.1524 73.4952 66.1513 73.7013 66.16C73.4244 66.1714 73.9642 66.0454 73.6924 66.1717C73.7515 66.1426 73.8047 66.1091 73.8638 66.0801C74.0137 65.9073 74.0507 65.8708 73.9794 65.9645C73.9081 66.0583 73.9334 66.0128 74.0702 65.8208C74.0918 65.6708 74.1075 65.5163 74.1292 65.3662C74.1516 65.5313 74.1488 65.5106 74.1046 65.3013C74.071 65.248 74.0434 65.1993 74.0143 65.1402C74.1498 65.3634 73.7986 65.0224 74.0378 65.158C74.362 65.3398 73.7248 65.0587 74.0891 65.1878C74.2051 65.2298 74.3109 65.2732 74.4314 65.3093C74.1904 65.237 74.3756 65.2854 74.5153 65.3084C75.2876 65.424 75.9556 66.1632 75.8251 66.9796C75.6816 67.7399 74.9706 68.383 74.1453 68.2642Z" fill="#24B243"/>
<path d="M91.1818 62.767C91.02 63.6244 90.7297 64.5413 89.9519 65.0412C89.421 65.3867 88.8059 65.5387 88.1936 65.2858C87.7706 65.1122 87.397 64.8373 87.1108 64.4717C86.08 63.1514 86.5155 60.9853 88.1845 60.4324C89.7134 59.9301 91.5785 60.8952 91.6894 62.5981C91.7952 64.1862 90.2813 65.7635 88.636 65.4095C87.8728 65.2454 87.1895 64.5871 87.3262 63.7383C87.446 62.997 88.1754 62.2568 88.9973 62.4286C89.3767 62.5136 88.8055 62.4862 89.0311 62.445C88.9603 62.4652 88.8939 62.4794 88.8231 62.4996C88.9664 62.4328 88.9338 62.4635 88.7136 62.5828C88.7624 62.5551 88.8098 62.5172 88.8527 62.4851C88.8022 62.5392 88.7474 62.5992 88.6911 62.6489C88.7326 62.6065 88.7638 62.5654 88.7995 62.5186C88.6786 62.7504 88.6533 62.7959 88.7279 62.6491C88.8194 62.395 88.7006 62.9891 88.7143 62.7035C88.7259 62.9436 88.7271 62.9908 88.706 62.836C88.7203 62.9024 88.7405 62.9732 88.7548 63.0395C88.688 62.8963 88.7084 62.9303 88.8218 63.146C88.7151 63.0187 88.7517 63.0557 88.9242 63.2424C88.7207 63.0599 89.2445 63.3564 88.9697 63.2677C88.667 63.1671 89.3211 63.3407 89.0021 63.2738C88.8431 63.2639 88.8843 63.2583 89.1228 63.2732C89.0049 63.2945 89.0093 63.2886 89.1362 63.2556C89.2675 63.2167 89.2675 63.2167 89.1582 63.2631C89.3667 63.1349 89.4007 63.1145 89.2764 63.205C89.3725 63.1394 89.4408 63.0618 89.4842 62.956C89.541 62.8327 89.5513 62.8313 89.4931 62.9443C89.5403 62.712 89.5523 62.6841 89.5262 62.84C89.5188 62.6308 89.5117 62.5793 89.5272 62.6927C89.5543 63.0463 89.4166 62.4976 89.5387 62.7384C89.425 62.5595 89.4032 62.5152 89.4629 62.6069C89.4892 62.6454 89.5154 62.6838 89.552 62.7209C89.565 62.5457 88.9666 62.396 89.3943 62.5269C89.0159 62.5259 88.6433 62.5293 88.2604 62.5341C88.3903 62.4849 88.402 62.4938 88.2942 62.5506C88.2055 62.5941 88.1403 62.6556 88.0883 62.7362C88.2649 62.5283 88.0399 62.9214 88.0911 62.7568C88.1152 62.6642 88.16 62.5688 88.1901 62.4807C88.1061 62.7128 88.1734 62.5512 88.195 62.4012C88.3371 61.6305 89.0336 60.9578 89.8662 61.0914C90.6354 61.2232 91.3374 61.942 91.1818 62.767Z" fill="#24B243"/>
<path d="M78.2567 74.4613C77.774 74.196 77.3342 73.8986 77.0178 73.4268C76.5995 72.7849 76.3366 72.0116 76.7434 71.2942C77.1039 70.662 77.7877 70.3588 78.5028 70.4401C79.4268 70.5507 80.0469 71.4015 79.96 72.3066C79.8929 73.088 79.0728 73.7408 78.2888 73.6163C77.4666 73.4813 76.9087 72.7796 76.9791 71.9452C76.9821 71.929 76.9807 71.9187 76.9838 71.9025C76.9858 72.0336 76.9865 72.1543 76.9886 72.2854C76.9872 72.2751 76.9799 72.2603 76.983 72.2441C77.016 72.371 77.0476 72.4875 77.0806 72.6144C77.0734 72.5996 77.0675 72.5951 77.0603 72.5804C77.1228 72.6927 77.1854 72.805 77.2538 72.9218C77.2421 72.9129 77.2407 72.9026 77.229 72.8936C77.3256 72.9856 77.4177 73.0834 77.5143 73.1753C77.5025 73.1664 77.4908 73.1575 77.485 73.153C77.5994 73.2215 77.7182 73.2842 77.8326 73.3527C77.8092 73.3348 77.7872 73.3273 77.7548 73.3212C77.8798 73.3515 78.0047 73.3818 78.1355 73.4165C78.1032 73.4104 78.0767 73.4088 78.0502 73.4071C78.1812 73.405 78.302 73.4044 78.4331 73.4023C78.4066 73.4006 78.3756 73.4048 78.3506 73.4135C78.4774 73.3805 78.5939 73.3489 78.7208 73.3158C78.706 73.3231 78.6957 73.3245 78.6809 73.3318C78.7933 73.2692 78.9056 73.2066 79.0224 73.1382C78.9973 73.1468 78.978 73.16 78.9602 73.1834C79.0522 73.0868 79.1499 72.9947 79.2419 72.8981C79.233 72.9099 79.2285 72.9157 79.2255 72.9319C79.294 72.8175 79.3566 72.6987 79.4251 72.5843C79.422 72.6004 79.4176 72.6063 79.4145 72.6225C79.4448 72.4975 79.4751 72.3725 79.5098 72.2417C79.5068 72.2579 79.5082 72.2682 79.511 72.2888C79.4773 72.0412 79.4422 71.7833 79.4085 71.5357C79.4459 71.6567 79.4923 71.766 79.5549 71.8783C79.4923 71.766 79.4298 71.6537 79.3613 71.5369C79.437 71.6684 79.5261 71.7824 79.6358 71.8936C79.5392 71.8016 79.4471 71.7039 79.3505 71.6119C79.4412 71.6994 79.5409 71.7752 79.6494 71.8392C79.535 71.7707 79.4161 71.7081 79.3017 71.6396C79.3238 71.6471 79.3472 71.6649 79.3693 71.6724C79.7331 71.8751 80.0306 72.092 80.1958 72.4951C80.3305 72.8288 80.3569 73.2928 80.203 73.629C80.0416 73.9872 79.7611 74.3196 79.3803 74.4555C79.0452 74.5799 78.5868 74.6475 78.2567 74.4613Z" fill="#24B243"/>
<path d="M25.7908 67.2429C25.9751 68.9831 24.3733 70.7248 22.5617 70.3461C20.6148 69.9386 19.7015 67.5515 20.896 65.9441C22.095 64.3308 24.7441 64.7636 25.5734 66.4949C26.3823 68.1921 24.9593 70.2825 23.1134 70.1922C20.7596 70.0765 20.2058 66.5476 22.3439 65.6577C23.0703 65.3592 24.0266 65.7072 24.3043 66.4732C24.5819 67.2393 24.264 68.1074 23.4888 68.4336C23.6482 68.3699 23.7861 68.225 23.8652 68.0724C23.8905 68.0269 23.975 67.7212 23.9684 67.8272C23.9451 68.0037 23.9457 67.4677 23.9834 67.7831C23.9652 67.649 23.9143 67.5456 23.837 67.4405C23.9595 67.6077 23.8018 67.4138 23.7432 67.3692C23.6084 67.2667 23.4438 67.2155 23.276 67.2174C23.2288 67.2185 22.9338 67.2902 23.0387 67.2497C23.2232 67.1773 22.7123 67.3992 22.7692 67.4702C22.7692 67.4702 22.8954 67.3164 22.8895 67.312C22.8553 67.3692 22.821 67.4264 22.7868 67.4836C22.8333 67.3617 22.8377 67.3558 22.8016 67.4763C22.6336 67.7093 22.9395 67.3315 22.7966 67.5558C22.8032 67.681 22.7973 67.6766 22.7849 67.5469C22.8036 67.6074 22.8165 67.6634 22.8353 67.7239C22.8685 67.814 22.9766 67.9516 22.8643 67.783C22.9067 67.8245 22.9492 67.8661 22.9916 67.9076C22.8758 67.8288 22.8744 67.8184 22.9785 67.8883C23.2574 68.008 22.7654 67.828 23.0343 67.9123C23.2268 67.9754 22.7867 67.946 23.1595 67.9057C23.1388 67.9085 22.9384 67.9411 22.937 67.9307C22.9705 67.984 23.2057 67.8206 23.2352 67.8061C22.9499 67.9868 23.36 67.642 23.2383 67.7899C23.1433 67.9027 23.3056 67.6284 23.3235 67.6049C23.3493 67.4858 23.3507 67.4962 23.3276 67.6359C23.3251 67.5785 23.3239 67.5313 23.3214 67.4739C23.4001 67.5892 23.3443 67.5653 23.2893 67.431C23.3153 67.5062 23.451 67.6927 23.334 67.5667C23.1674 67.3845 23.5352 67.6549 23.3005 67.5135C23.2098 67.426 23.2201 67.4246 23.327 67.5152C23.2756 67.4854 23.2288 67.4497 23.1716 67.4154C23.0717 67.3765 22.9362 67.3844 23.1099 67.3871C23.0525 67.3896 22.678 67.4564 22.8196 67.4161C22.9111 67.3931 23.0061 67.2804 22.8904 67.3959C22.8032 67.4498 22.7929 67.4512 22.8551 67.406C22.9453 67.3359 22.9127 67.3666 22.769 67.507C22.7793 67.5056 22.8996 67.3474 22.8982 67.3371C22.9141 67.3769 22.7256 67.6128 22.8389 67.4029C22.7964 67.5926 22.7858 67.6308 22.7969 67.519C22.8079 67.4072 22.8032 67.4498 22.7917 67.6353C22.7115 66.8529 23.25 66.023 24.0751 65.9475C24.8868 65.8896 25.6991 66.4147 25.7908 67.2429Z" fill="#24B243"/>
<path d="M55.7844 58.1222C54.3146 58.5954 52.8286 58.4089 51.552 57.5213C51.0536 57.1793 50.775 56.3293 51.0673 55.7747C51.5834 54.7797 52.2395 53.771 53.3451 53.3631C54.405 52.9666 55.6285 53.1942 56.4227 54.0108C57.2769 54.8823 57.3119 56.2593 56.5708 57.2218C55.9098 58.0788 54.822 58.4633 53.8119 58.6848C53.0156 58.8562 52.228 58.1648 52.1241 57.4014C52.0076 56.5451 52.6112 55.885 53.4075 55.7136C53.4886 55.6921 53.6111 55.6649 53.4591 55.7066C53.5801 55.6691 53.6952 55.6272 53.8104 55.5852C53.9049 55.5461 53.9949 55.5128 54.088 55.4634C54.2993 55.3558 53.9459 55.5773 54.1265 55.4371C54.3218 55.2897 54.2144 55.2728 54.1856 55.4081C54.2123 55.3729 54.2346 55.3436 54.2613 55.3084C54.2301 55.3495 54.2048 55.3949 54.1736 55.4359C54.1314 55.5888 54.1064 55.7919 54.1791 55.9396C54.2081 55.9987 54.4761 56.2302 54.3368 56.1336C54.1565 56.0057 54.5375 56.2954 54.3661 56.1558C54.2883 56.1244 54.2883 56.1244 54.3706 56.15C54.4573 56.1697 54.4529 56.1756 54.372 56.1603C54.2866 56.1509 54.2866 56.1509 54.372 56.1603C54.4765 56.1566 54.4573 56.1697 54.307 56.1849C54.3762 56.1912 54.4353 56.1622 54.4871 56.1183C54.4013 56.1826 54.3096 56.2423 54.2355 56.3155C54.357 56.2043 54.2191 56.3492 54.1879 56.3902C54.0169 56.6394 53.9336 56.7611 53.8621 56.8917C53.704 56.309 53.54 55.7218 53.3774 55.145C53.5049 55.2327 53.7471 55.3522 53.978 55.389C54.0428 55.4012 54.489 55.3983 54.2812 55.4161C54.349 55.4121 54.843 55.2976 54.6571 55.3597C55.4274 55.113 56.2885 55.3793 56.6174 56.1752C56.8897 56.8632 56.5591 57.8696 55.7844 58.1222Z" fill="#24B243"/>
<path d="M29.0247 88.7271C28.2471 89.1902 27.4319 89.3379 26.5607 89.0362C25.8379 88.7825 25.2116 88.1953 24.9454 87.4749C24.7024 86.8092 24.904 86.1671 25.4195 85.7082C26.2459 84.9862 27.4204 84.8526 28.4297 85.2039C29.3229 85.5131 29.6738 86.7789 29.0682 87.5023C28.5028 88.1729 27.6825 88.6313 26.7895 88.2853C25.923 87.9408 25.4011 86.9243 25.784 86.0316C26.2028 85.0551 27.4136 84.7642 28.2636 85.3736C29.1547 86.0142 29.1095 87.2655 28.304 87.9478C27.7057 88.4548 26.6509 88.3094 26.2061 87.6659C25.7233 86.975 25.8468 86.1071 26.488 85.568C26.4969 85.5562 26.5117 85.549 26.5206 85.5373C26.3299 85.8732 26.1347 86.215 25.944 86.5509C25.947 86.5348 25.9515 86.5289 25.9546 86.5127C25.9882 86.7603 26.0234 87.0182 26.0571 87.2658C26.397 87.5243 26.7369 87.7828 27.0812 88.0354C27.3288 88.0017 27.5868 87.9666 27.8344 87.9329C27.8196 87.9402 27.8034 87.9371 27.7886 87.9444C27.9929 87.7852 28.203 87.6305 28.4117 87.4655C28.458 87.3804 28.5055 87.3057 28.5518 87.2206C28.5858 86.969 28.614 86.7129 28.6481 86.4614C28.3176 86.1176 27.9812 85.7693 27.6507 85.4255C27.4031 85.4592 27.1452 85.4943 26.8976 85.528C27.0629 85.4687 27.0362 85.5039 26.8129 85.6393C26.6056 85.8147 26.5716 85.835 26.6948 85.6974C26.9091 86.4616 27.119 87.2317 27.3333 87.9958C27.0248 87.8907 27.6292 88.0081 27.3082 88.0045C27.5012 87.994 27.5438 87.9987 27.4348 88.0083C27.3832 88.0153 27.3316 88.0223 27.2801 88.0294C27.3361 88.0165 27.3966 87.9977 27.4526 87.9848C27.3877 88.0095 27.3227 88.034 27.2636 88.0631C27.3169 88.0296 27.3715 88.0064 27.4247 87.9729C27.367 88.0123 27.3152 88.0561 27.2634 88.0999C27.4249 87.5105 27.5819 86.927 27.7375 86.3331C27.8127 86.5383 27.6997 86.2489 27.6498 86.2295C27.6439 86.225 27.8938 86.5167 27.673 86.2841C27.496 86.1033 27.6423 86.2515 27.6936 86.2813C27.858 86.3693 27.3357 86.0831 27.6072 86.2247C27.7994 86.3247 27.5206 86.1682 27.4777 86.2003C27.4822 86.1945 27.6425 86.2147 27.6484 86.2191C27.5748 86.2187 27.5115 86.2168 27.4379 86.2163C27.5558 86.195 27.5513 86.2008 27.4245 86.2339C27.3138 86.2699 27.2887 86.2786 27.3581 86.2482C27.4629 86.2076 27.4142 86.2353 27.2132 86.3414C27.8844 85.9453 28.8196 85.9074 29.3111 86.6233C29.7297 87.2284 29.7433 88.2931 29.0247 88.7271Z" fill="#24B243"/>
<path d="M20.2664 79.4222C19.1107 80.7353 16.966 80.8433 15.8759 79.3577C14.8558 77.9624 15.5077 75.8036 17.1168 75.1958C18.7509 74.5794 20.7745 75.8592 20.5813 77.6823C20.4008 79.3671 18.2158 80.4526 16.8613 79.3024C16.2624 78.8007 16.0376 77.8436 16.5749 77.1978C17.0766 76.5988 18.0337 76.374 18.6795 76.9114C18.826 77.0228 18.7717 77.0091 18.5178 76.8808C18.3844 76.7886 18.2388 76.7612 18.0854 76.7925C17.8847 76.8619 17.839 76.8734 17.9438 76.8329C18.0486 76.7923 18.0043 76.8141 17.8226 76.9071C18.0266 76.7848 17.7543 76.9847 17.6992 77.0815C17.6187 77.2238 17.5837 77.3915 17.6165 77.5551C17.6491 77.7556 17.7484 77.8682 17.8816 77.9972C17.605 77.7406 18.1333 78.2256 17.8478 77.9808C17.9022 77.9944 17.9566 78.008 18.0065 78.0275C17.8682 78.0148 17.8579 78.0162 17.9742 78.0214C18.0551 78.0366 18.1362 78.0151 18.2101 77.9787C18.3595 77.8796 18.3876 77.8547 18.2973 77.9248C18.1522 78.0549 18.5049 77.7127 18.3032 77.9293C18.3912 77.7649 18.4179 77.7298 18.3745 77.8355C18.3355 77.9354 18.3416 77.903 18.3928 77.7385C18.3805 78.0344 18.2941 77.5155 18.3878 77.818C18.3691 77.7575 18.1987 77.4706 18.2981 77.5832C18.3989 77.7061 18.131 77.4746 18.0796 77.4448C18.4228 77.6503 17.814 77.3076 18.1722 77.469C18.0102 77.4753 17.9882 77.4678 18.0972 77.4582C18.2048 77.4383 18.1798 77.447 18.0219 77.4842C18.2581 77.4048 17.9687 77.5177 17.8871 77.6129C18.4064 77.0273 19.3342 76.7802 19.9917 77.3265C20.5731 77.8148 20.8272 78.7942 20.2664 79.4222Z" fill="#24B243"/>
<path d="M41.6574 53.8819C40.4035 53.5481 39.182 52.5638 38.9833 51.2195C38.7942 49.9843 39.511 48.6888 40.6846 48.2401C42.0531 47.7176 43.4664 48.6444 43.6337 50.0665C43.7883 51.3957 42.7305 52.8111 41.298 52.5542C40.5229 52.418 39.8547 51.7156 39.9883 50.8831C40.1156 50.1197 40.8313 49.4338 41.6594 49.5733C41.8301 49.5921 41.7696 49.6109 41.4765 49.6192C41.2969 49.6122 41.1405 49.6597 40.9926 49.7692C40.9318 49.8247 40.8666 49.8861 40.8059 49.9417C40.6895 50.1677 40.6508 50.2307 40.6928 50.1147C40.7602 49.9532 40.6346 50.4589 40.6525 50.2042C40.6627 50.434 40.6594 50.487 40.644 50.3735C40.6285 50.26 40.6414 50.3161 40.6929 50.5402C40.8277 50.8739 41.2295 51.124 41.5892 51.0645C41.7899 50.9952 41.8415 50.9881 41.7367 51.0287C41.6377 51.0737 41.6762 51.0474 41.8682 50.953C41.6405 51.0943 42.0167 50.7699 41.9097 50.9105C41.8028 51.0512 42.046 50.561 41.935 50.8651C41.8391 51.1251 41.9689 50.6503 41.9412 50.8327C41.9193 51.0196 41.9623 50.5251 41.9473 50.8004C41.9042 50.6381 41.9 50.6071 41.9405 50.7119C41.9855 50.8109 41.9782 50.7961 41.9128 50.6632C42.1191 50.8663 41.7909 50.6167 41.9463 50.7164C42.0387 50.7774 42.128 50.8545 42.2204 50.9155C41.9461 50.7532 42.3292 50.9428 42.3688 50.9637C42.4965 51.0146 42.6274 51.0493 42.764 51.0885C43.5269 51.2894 43.9042 52.3624 43.5964 53.0348C43.236 53.8614 42.4746 54.0964 41.6574 53.8819Z" fill="#24B243"/>
<path d="M38.7183 68.1104C37.0806 69.4733 34.3136 68.4051 34.0109 66.2974C33.7025 64.1853 36.208 62.2891 38.1449 63.318C38.7391 63.6311 39.161 64.1832 39.0739 64.8938C38.8873 66.3798 37.8994 67.6912 36.4882 68.209C35.728 68.491 34.8482 68.1642 34.5279 67.3934C34.2294 66.667 34.5787 65.721 35.3434 65.4331C35.8438 65.2494 36.0441 65.0224 36.0974 64.5266C36.4105 65.0514 36.7178 65.5717 37.0264 66.1024C37.0147 66.0935 36.8122 65.995 36.8077 66.0008C36.7838 66.0566 37.2285 66.0434 37.0445 66.0422C36.8339 66.0393 37.2731 65.9848 37.0682 66.0232C37.0269 66.0288 36.8067 66.1481 36.9678 66.0579C37.1482 65.9545 36.8745 66.1441 36.8419 66.1748C36.9308 66.0944 37.0239 66.045 36.8876 66.1633C36.972 66.0888 36.9789 65.946 36.9305 66.1313C36.9441 66.0769 36.967 65.7427 36.9777 65.8989C36.9915 66.0389 36.9299 65.7793 36.9184 65.7336C36.872 65.6243 37.0038 65.743 36.8819 65.6965C36.7159 65.635 36.9377 65.7205 37.0035 65.7798C36.9215 65.7174 36.7998 65.6341 36.9611 65.7383C37.1107 65.8335 37.0423 65.7167 36.9229 65.7277C37.1351 65.7041 36.9318 65.716 36.883 65.7437C37.1846 65.566 36.7158 65.8663 36.8947 65.7526C37.0737 65.6389 36.6091 65.9701 36.8919 65.7319C37.5153 65.2163 38.5169 65.3952 38.9898 66.0139C39.5111 66.6785 39.3461 67.5888 38.7183 68.1104Z" fill="#24B243"/>
<path d="M13.2754 90.0145C11.4131 88.8389 10.7198 86.3693 11.4959 84.3513C11.833 83.47 13.0488 83.0996 13.7943 83.7127C15.2924 84.9537 15.8389 86.9231 15.1686 88.7534C14.993 89.2396 14.4943 89.628 13.9815 89.682C12.9603 89.7842 11.9307 89.3989 11.3534 88.516C10.9147 87.8402 10.9487 86.9319 11.6353 86.4181C12.3886 85.8533 13.2751 85.6118 14.2153 85.7255C16.1294 85.9694 15.768 88.9503 13.8539 88.7064C13.6347 88.6784 13.6333 88.6681 13.4572 88.8024C13.5516 88.1065 13.6447 87.4004 13.7391 86.7045C13.946 87.0283 13.7745 86.6944 13.5785 86.7211C13.1847 87.0321 12.7851 87.3387 12.3914 87.6497C12.5983 87.0857 12.414 86.4645 11.9819 86.1083C12.7461 85.8939 13.5162 85.684 14.2803 85.4697C13.9507 86.3289 14.3589 87.1665 15.0891 87.6293C15.7784 88.0609 15.839 89.1245 15.3756 89.734C14.8497 90.4255 13.9602 90.452 13.2754 90.0145Z" fill="#24B243"/>
<path d="M27.3063 58.1102C25.5163 57.5815 24.7944 54.9792 26.0801 53.6169C26.5442 53.1281 27.1717 52.8746 27.8267 53.1322C29.8696 53.9365 30.498 56.4307 29.3642 58.2137C28.8925 58.9557 27.9153 58.8785 27.2596 58.5001C25.8031 57.6423 25.2495 55.6213 25.9207 54.1062C26.3184 53.2062 27.419 52.8777 28.2191 53.4676C29.7724 54.6117 30.0248 56.7368 29.0042 58.31C28.5787 58.9668 27.4913 59.0833 26.8996 58.5964C26.2362 58.0457 26.1579 57.2 26.6132 56.4918C26.5358 56.6179 26.5475 56.6268 26.6073 56.4873C26.6582 56.3596 26.6348 56.3417 26.6221 56.4801C26.6359 56.3889 26.6453 56.3035 26.6489 56.2137C26.646 56.4243 26.6311 56.2372 26.6215 56.1281C26.5875 55.9173 26.6983 56.3068 26.6142 56.1133C26.5997 56.0838 26.4731 55.8488 26.565 55.9835C26.6524 56.1239 26.486 55.9049 26.4715 55.8753C26.3548 55.7126 26.7132 56.0684 26.4098 55.8469C27.174 55.6326 27.9441 55.4227 28.7082 55.2084C28.6723 55.2921 28.6409 55.3699 28.6108 55.4581C28.6951 55.1892 28.6329 55.4656 28.6265 55.5348C28.6133 55.7467 28.5954 55.3446 28.6338 55.5495C28.6495 55.6262 28.7406 55.8712 28.645 55.6321C28.6769 55.7118 28.7146 55.796 28.7465 55.8757C28.6811 55.7427 28.6795 55.7692 28.7627 55.8788C28.9291 56.0978 28.6642 55.8501 28.8006 55.9261C28.8916 55.9768 28.9809 56.054 29.0777 56.1091C28.3762 56.2046 27.6747 56.3 26.9731 56.3955C26.8005 56.6712 26.9433 56.4469 26.963 56.3601C26.9961 56.2558 26.9945 56.2823 26.9419 56.4365C26.9466 56.3939 26.9513 56.3512 26.9574 56.3188C26.8967 56.3744 26.9824 56.5414 26.9459 56.2731C26.9349 56.1538 26.8313 56.0103 26.9389 56.2215C26.8981 56.1535 26.8707 56.0679 26.8447 55.9927C26.9621 56.2761 26.8799 56.0194 26.7993 55.9673C26.6497 55.8721 26.9969 56.1453 26.7758 55.9495C26.5489 55.7492 27.0034 56.0394 26.6921 55.9136C27.2748 55.7555 27.8619 55.5915 28.4388 55.429C28.2 55.6821 28.351 55.5565 28.4071 55.3124C28.3928 55.4773 28.3811 55.4683 28.3823 55.2843C28.3877 55.3624 28.3989 55.4449 28.4146 55.5216C28.3642 55.3445 28.3731 55.3328 28.431 55.4878C28.3349 55.3223 28.3335 55.3119 28.4357 55.4451C28.2587 55.2643 28.0484 55.2246 28.3879 55.3255C29.1433 55.5485 29.5369 56.5877 29.2202 57.2718C28.888 58.0736 28.1058 58.3482 27.3063 58.1102Z" fill="#24B243"/>
<path d="M5.438 76.785C5.39728 77.3738 5.1622 77.9627 4.75881 78.3959C4.31836 78.8656 3.64489 79.1674 3.01215 78.8805C0.981692 77.9747 0.854515 74.7241 3.04814 73.8949C5.18714 73.0889 7.175 75.5346 6.33861 77.5346C5.87173 78.6595 4.49058 79.3203 3.34535 78.8194C2.25006 78.338 1.66259 76.9942 2.06616 75.8674C2.46528 74.7466 3.71538 74.0878 4.87171 74.2457C6.11925 74.4174 7.03318 75.3806 7.47625 76.5129C8.18293 78.3082 5.41292 79.4575 4.70039 77.6578C4.67719 77.6031 4.45807 77.1128 4.41632 77.1921C4.37316 77.261 4.71271 77.1307 4.7364 77.1117C4.91111 76.9671 4.97544 76.5906 4.87234 76.3734C4.76923 76.1563 4.61027 76.1464 4.37653 76.0889C3.89731 75.965 3.82883 76.0793 3.54527 76.4279C3.52061 76.5942 3.51894 76.6207 3.52999 76.5088C3.54244 76.4073 3.54527 76.4279 3.52952 76.5824C3.54546 76.6223 3.56137 76.6622 3.57285 76.7079C3.51193 76.5691 3.50912 76.5484 3.56442 76.646C3.62419 76.7377 3.61107 76.7184 3.52646 76.5986C3.56303 76.6357 3.59818 76.6624 3.63475 76.6995C3.59959 76.6727 3.57029 76.6505 3.53512 76.6237C3.59513 76.6786 3.66265 76.7114 3.73767 76.7222C3.91867 76.7396 4.13368 76.7366 4.28471 76.611C4.34685 76.5658 4.39141 76.5072 4.40808 76.4366C4.45148 76.3309 4.44844 76.347 4.38416 76.4924C4.39472 76.4542 4.39941 76.4115 4.40997 76.3733C4.39422 76.5278 4.39258 76.5543 4.38886 76.4497C4.38349 76.3716 4.38935 76.3761 4.40058 76.4586C4.42048 76.5663 4.41321 76.5515 4.38769 76.4026C4.29417 76.2945 4.25224 76.1793 4.10103 76.1106C3.51834 76.2687 2.93119 76.4327 2.35437 76.5953C2.56943 76.3611 2.42396 76.7592 2.44373 76.4413C2.50209 75.6347 3.33508 75.038 4.11488 75.1315C4.9669 75.2152 5.49495 75.9682 5.438 76.785Z" fill="#24B243"/>
<path d="M15.1825 65.1139C13.5309 65.2546 11.9233 64.0969 11.7697 62.3893C11.617 60.7656 12.9639 59.274 14.5681 59.1713C16.3447 59.0608 17.8094 60.6741 17.6284 62.4325C17.545 63.2478 17.1146 63.9841 16.4429 64.4538C15.6233 65.0329 14.6836 65.0767 13.7458 64.8261C12.9653 64.6118 12.6336 63.5642 12.9135 62.8798C13.2429 62.0574 14.0793 61.8333 14.8598 62.0475C14.6907 62.0022 14.6124 62.0444 14.8056 61.9971C14.6183 62.0489 14.6309 62.1417 14.7423 61.9952C14.6518 62.1021 14.637 62.1094 14.7039 62.0214C14.7752 61.9277 14.7618 61.9453 14.6696 62.0787C14.6421 62.2243 14.6346 62.2463 14.6515 62.1389C14.6581 62.033 14.6609 62.0536 14.6541 62.1964C14.6286 62.0475 14.6258 62.0268 14.6443 62.1241C14.6686 62.2259 14.66 62.2008 14.6094 62.0606C14.6895 62.1863 14.6968 62.2011 14.6325 62.1152C14.5625 62.0249 14.5859 62.0428 14.6911 62.1598C14.5636 62.0721 14.5505 62.0528 14.6487 62.1183C14.7015 62.1584 14.7676 62.1809 14.8353 62.1769C14.6867 62.1656 14.6691 62.1523 14.7751 62.1589C14.8797 62.1552 14.8649 62.1624 14.719 62.1718C14.7648 62.1603 14.806 62.1547 14.8459 62.1387C14.6923 62.2069 14.6864 62.2025 14.8475 62.1122C14.8135 62.1326 14.781 62.1633 14.7469 62.1837C14.6151 62.2962 14.6196 62.2904 14.7603 62.1662C14.7336 62.2013 14.7113 62.2306 14.6846 62.2658C14.777 62.0956 14.7814 62.0897 14.7141 62.2512C14.7291 62.2071 14.7383 62.1586 14.7488 62.1204C14.7345 62.2852 14.73 62.2911 14.7444 62.1263C14.7343 62.0909 14.7184 62.051 14.7127 62.0098C14.7868 62.1678 14.7765 62.1692 14.6935 62.0229C14.7198 62.0613 14.7446 62.0895 14.7709 62.1279C14.6464 62.024 14.6333 62.0048 14.7167 62.0775C14.765 62.1235 14.8177 62.1636 14.8749 62.1978C14.7385 62.1218 14.7151 62.104 14.8163 62.1533C14.9162 62.1922 14.9 62.1892 14.7575 62.1455C14.9282 62.1643 14.9282 62.1643 14.7692 62.1544C15.5737 62.0817 16.3388 62.6081 16.457 63.4379C16.5712 64.1999 15.9928 65.0457 15.1825 65.1139Z" fill="#24B243"/>
</svg>
