<svg width="185" height="167" viewBox="0 0 185 167" fill="none" xmlns="http://www.w3.org/2000/svg">
<path opacity="0.3" d="M154.216 53.4743C137.808 55.4355 121.394 57.3782 104.985 59.3395C94.0817 60.6295 83.153 61.9373 72.4789 64.4884C53.3843 69.0505 34.7123 77.659 15.1182 76.5119C13.9152 96.7933 25.5671 116.829 42.8863 127.471C60.1933 138.106 85.6648 147.529 105.002 141.319C127.281 134.157 139.809 120.888 151.105 100.395C156.396 90.8002 164.456 71.8656 160.298 61.7187C158.08 56.3063 156.558 51.7496 154.377 53.8724" fill="#F2CF74"/>
<path d="M134.024 41.3408C135.099 42.8769 135.565 44.572 135.508 46.4421C135.462 48.0406 133.482 48.5456 132.352 47.7716C130.482 46.4961 129.576 44.3693 129.655 42.1501C129.693 40.8018 131.242 40.1756 132.353 40.5575C134.198 41.1926 136.621 43.0713 136.278 45.2849C135.891 47.7815 132.786 48.1626 130.942 47.1258C129.105 46.095 128.201 43.4695 130.159 42.0331C131.927 40.7331 134.839 41.9361 134.505 44.3147C134.149 46.8347 130.221 46.3585 130.577 43.8384C130.447 44.7146 131.673 45.9878 132.489 45.2191C132.65 44.9271 132.817 44.6275 132.978 44.3356C133.005 44.1242 132.971 43.9281 132.864 43.7488C132.736 43.6277 132.727 43.6082 132.843 43.6963C132.964 43.7766 132.951 43.7785 132.814 43.6864C132.922 43.7686 133.034 43.781 133.04 43.7733C132.992 43.7729 132.951 43.7785 132.908 43.8189C132.455 44.1574 132.32 44.6882 132.494 45.4053C132.411 45.3543 132.213 45.0213 132.19 45.0036C131.81 44.6053 131.383 44.4143 130.873 44.2343C131.777 43.7028 132.668 43.1732 133.571 42.6417C133.564 42.9404 133.667 43.3971 133.903 43.8081C134.06 44.0982 134.323 44.3464 134.744 44.6422C133.689 45.0834 132.642 45.5305 131.588 45.9718C131.61 45.221 131.321 44.3673 130.883 43.7415C130.271 42.8624 130.382 41.6426 131.254 40.977C132.081 40.3383 133.413 40.4617 134.024 41.3408Z" fill="#E6B431"/>
<path d="M117.8 51.1851C115.416 49.2872 118.298 45.6895 120.731 47.4422C122.359 48.6192 122.921 51.6304 121.584 53.1971C119.906 55.1632 117.139 54.0582 116.35 51.874C115.624 49.8474 116.326 47.5294 117.508 45.8317C118.307 44.6845 119.811 44.9505 120.651 45.8331C122.412 47.6843 122.83 50.8052 121.585 53.0516C121.068 53.9873 120.112 54.5883 119.02 54.1483C116.905 53.3077 116.035 51.0861 116.641 48.9751C116.937 47.9448 118.29 47.5114 119.205 47.8784C120.281 48.3066 120.598 49.4127 120.302 50.443C120.318 50.4062 120.328 50.3772 120.336 50.3346C120.323 50.1909 120.323 50.1909 120.342 50.3269C120.342 50.3269 120.314 50.3791 120.414 50.5039C120.27 50.3089 120.505 50.5123 120.497 50.5549C120.525 50.4542 120.002 50.2761 120.479 50.4675C119.628 50.8325 118.764 51.1993 117.914 51.5642C118.603 50.3212 118.492 49.2494 117.507 48.2203C118.553 48.2233 119.605 48.2187 120.651 48.2217C120.425 48.5501 120.215 48.9387 120.107 49.3687C120.05 49.6051 119.999 49.8958 119.998 50.1383C119.996 50.1247 120.096 50.7618 120.034 50.4587C120.147 50.9834 120.112 50.4204 119.951 50.4562C119.51 50.17 119.025 50.2638 118.494 50.7376C118.441 50.8071 118.396 50.8825 118.366 50.9696C118.472 51.0867 118.312 50.6724 118.301 50.5908C118.311 50.7209 118.29 50.6684 118.226 50.4487C118.328 50.5871 118.453 50.6947 118.596 50.779C118.928 50.8239 119.265 50.8611 119.597 50.906C120.005 50.4973 120.413 50.0887 120.814 49.6742C120.769 49.3479 120.723 49.008 120.679 48.6817C120.69 48.7148 120.701 48.7479 120.721 48.7868C120.511 48.5176 120.299 48.2349 120.09 47.9658C120.12 47.9892 120.151 48.0127 120.182 48.0362C122.178 49.6269 119.796 52.7758 117.8 51.1851Z" fill="#E6B431"/>
<path d="M99.1561 53.4248C99.4612 51.5971 101.297 50.8972 102.911 51.6122C104.201 52.1912 105.111 53.7359 105.257 55.1145C105.42 56.6155 104.645 58.0986 103.204 58.6478C101.887 59.1455 100.416 58.5634 99.5421 57.5331C98.593 56.4092 98.5183 54.7924 99.3664 53.5969C100.289 52.2875 102.059 51.8665 103.537 52.344C106.679 53.3563 106.541 57.8337 103.919 59.3259C102.133 60.3444 100.201 59.375 99.3981 57.5942C98.7441 56.1463 98.6238 54.3972 98.9891 52.859C99.2288 51.8225 100.051 50.9976 101.191 51.1332C102.162 51.2502 103.163 52.291 102.917 53.3352C102.813 53.7925 102.725 54.2615 102.747 54.7292C102.755 54.9912 102.794 55.2767 102.864 55.5372C102.888 55.6169 103.082 55.9713 103.062 56.0779C103.094 55.8588 101.932 55.9132 101.947 55.925C101.847 56.0563 101.884 56.0235 102.029 55.8169C102.012 55.8401 101.994 55.8632 101.977 55.8864C102.156 55.4743 101.867 56.0467 102.179 56.0042C102.207 56.0005 102.253 56.0842 102.301 56.0845C102.594 56.1 102.737 55.6237 102.744 55.4219C102.745 55.2279 102.672 55.1478 102.603 54.998C102.546 54.9297 102.478 54.8904 102.385 54.8685C102.625 54.9535 102.6 54.9708 102.301 54.9145C102.164 54.8709 102.026 54.8758 101.895 54.9351C101.656 55.0092 101.51 55.1537 101.45 55.3765C101.146 55.6325 101.595 55.7305 101.343 55.4533C101.408 55.5275 101.197 55.1962 101.197 55.1962C101.107 55.0909 101.097 55.0714 101.176 55.1437C101.42 55.3045 101.707 55.3277 102.022 55.2018C102.291 54.992 102.574 54.7805 102.843 54.5707C102.813 54.6094 102.784 54.648 102.741 54.6884C102.871 54.373 103 54.044 103.13 53.7286C103.124 53.7848 103.11 53.8352 103.098 53.8991C102.65 56.4108 98.7222 55.9346 99.1561 53.4248Z" fill="#E6B431"/>
<path d="M91.5297 60.8254C93.5236 62.4025 93.8838 65.1505 92.4265 67.2111C91.7997 68.0995 90.4971 68.1937 89.6532 67.5886C86.3202 65.176 85.6482 60.5943 87.7296 57.1679C88.1475 56.474 89.3194 56.183 90.0312 56.5292C93.3947 58.1484 94.7269 62.9518 91.9993 65.8015C91.1983 66.6306 89.6027 67.0139 88.8559 65.8001C87.683 63.8966 87.9585 61.8514 89.585 60.3216C90.3659 59.5991 91.7512 59.9091 92.3494 60.693C93.0496 61.6155 92.7589 62.7351 91.9779 63.4575C92.1556 63.2879 92.0629 63.5221 91.99 63.3936C90.9442 63.3905 89.8925 63.3951 88.8467 63.3921C89.6771 62.5244 89.8206 60.7811 88.5614 60.177C89.3292 59.9687 90.1029 59.7526 90.863 59.5384C89.8724 61.1617 90.5738 63.3648 92.0336 64.4261C91.1092 64.5519 90.1848 64.6777 89.2603 64.8035C89.4757 64.5042 89.3887 64.1699 89.1166 63.9508C87.1458 62.3913 89.5281 59.2424 91.5297 60.8254Z" fill="#E6B431"/>
<path d="M116.149 62.508C117.412 61.9692 118.933 61.4922 120.331 61.5926C121.821 61.7015 122.989 62.8579 123.148 64.3317C123.292 65.6482 122.688 67.0044 121.598 67.748C120.415 68.5668 119.008 68.606 117.628 68.593C116.346 68.5806 115.58 66.9747 116.036 65.895C116.726 64.2503 118.017 62.953 119.698 62.3296C120.699 61.9579 121.859 62.3886 122.281 63.4043C122.682 64.3674 122.214 65.608 121.206 65.9875C120.481 66.2524 120.004 66.6703 119.705 67.3688C119.173 66.4649 118.644 65.5747 118.112 64.6709C118.452 64.6731 118.988 64.5932 119.246 64.5581C119.769 64.4801 119.307 64.3974 119.297 64.572C119.204 64.7576 119.202 64.7441 119.303 64.5158C119.262 64.5698 119.25 64.6338 119.245 64.7036C119.241 64.7734 119.244 64.8491 119.281 64.9134C119.428 65.2811 119.704 65.4789 120.103 65.5145C120.105 65.5281 119.328 65.62 119.295 65.6314C118.728 65.7363 118.207 65.9249 117.677 66.1562C115.321 67.1554 113.807 63.5053 116.149 62.508Z" fill="#E6B431"/>
<path d="M131.672 58.7477C132.427 59.8704 133.182 60.993 133.937 62.1156C134.648 63.1681 134.353 64.6137 133.124 65.1411C130.95 66.06 128.194 64.732 127.773 62.3523C127.583 61.2566 127.881 60.0944 128.609 59.2338C129.473 58.2092 130.607 57.7918 131.917 57.8005C132.984 57.8076 133.76 59.0313 133.643 60.0026C133.503 61.1639 132.514 61.7279 131.441 61.7285C131.648 61.7279 131.625 61.7103 131.816 61.6359C131.654 61.7687 131.615 61.7879 131.713 61.6915C131.802 61.5893 131.779 61.6201 131.642 61.7842C131.763 61.4493 131.575 61.9525 131.652 61.7551C131.678 61.6893 131.676 61.6272 131.646 61.5552C131.675 61.7727 131.679 61.7999 131.66 61.664C131.566 61.2753 131.614 61.6288 131.678 61.5923C131.534 61.4458 131.516 61.4205 131.634 61.5221C131.756 61.6025 131.727 61.5926 131.561 61.4906C131.619 61.5104 131.671 61.5379 131.729 61.5577C131.522 61.5098 131.528 61.502 131.754 61.5404C131.625 61.5027 131.253 61.671 131.626 61.5163C131.356 62.5293 131.083 63.5287 130.813 64.5417C130.058 63.419 129.303 62.2964 128.547 61.1738C127.956 60.2851 128.034 59.0767 128.919 58.4093C129.717 57.7607 131.08 57.859 131.672 58.7477Z" fill="#E6B431"/>
<path d="M102.035 67.205C103.029 66.9245 103.923 66.9828 104.804 67.5552C105.381 67.9335 105.853 68.5478 106.066 69.1973C106.705 71.0973 105.46 72.9905 103.48 73.2394C101.473 73.5055 99.7474 71.9126 99.8286 69.9146C99.8936 68.3065 101.252 66.8409 102.858 66.6847C103.883 66.5867 104.982 67.2886 105.082 68.3759C105.174 69.4087 104.491 70.4986 103.39 70.5999C103.035 70.6344 103.826 70.3952 103.423 70.5885C103.287 70.6555 103.357 70.6113 103.642 70.4619C103.48 70.5947 103.521 70.5406 103.778 70.2979C103.741 70.3306 103.706 70.3769 103.677 70.4155C103.583 70.5391 103.628 70.4638 103.797 70.1777C103.763 70.2376 103.738 70.3034 103.712 70.3692C103.74 70.2685 103.762 70.1755 103.782 70.0689C103.77 70.1329 103.76 70.2104 103.755 70.2803C103.738 69.9503 103.742 69.8805 103.77 70.0844C103.744 69.9911 103.723 69.89 103.696 69.7967C103.514 69.5239 103.485 69.4655 103.612 69.6351C103.375 69.4182 103.311 69.3576 103.443 69.4574C103.572 69.5437 103.498 69.5121 103.226 69.3415C103.416 69.4126 103.365 69.3987 103.055 69.3093C103.216 69.322 103.211 69.3297 103.03 69.3266C102.55 69.4612 103.699 69.104 102.842 69.3661C102.875 69.3547 102.914 69.3355 102.947 69.3241C102.748 69.3926 102.592 69.5177 102.477 69.6858C102.577 69.5545 102.565 69.5699 102.463 69.7361C102.363 69.8674 102.313 70.0126 102.303 70.1872C102.323 69.9836 102.327 70.0593 102.319 70.4065C102.292 70.2647 102.302 70.2842 102.347 70.4649C102.406 70.6438 102.402 70.6652 102.349 70.5271C102.535 70.8271 102.572 70.8914 102.458 70.7199C102.235 70.4525 102.86 71.0252 102.568 70.8157C102.277 70.6061 103.015 70.9971 102.696 70.8883C103.045 70.9585 103.124 70.9824 102.918 70.948C103.13 70.9746 103.334 70.9469 103.536 70.857C103.023 71.003 102.561 71.0659 102.042 70.8665C101.587 70.6792 101.121 70.2511 100.953 69.7824C100.629 68.878 100.97 67.5162 102.035 67.205Z" fill="#E6B431"/>
<path d="M140.505 63.3196C141.797 62.5346 143.292 62.3311 144.702 62.9769C146.083 63.6128 147.086 64.8263 147.294 66.3489C147.436 67.3957 146.665 68.4422 145.602 68.5729C143.94 68.7715 142.021 68.458 141.364 66.6782C140.775 65.0968 141.708 63.0521 143.511 62.9243C144.573 62.8421 145.585 63.5143 145.735 64.6155C145.872 65.6215 145.114 66.7632 144.044 66.8396C144.802 66.6117 145.157 66.162 145.114 65.4962C145.043 65.1736 144.87 64.9202 144.59 64.7437C144.579 64.6622 144.961 64.6725 145.064 64.6654C144.5 65.4067 143.936 66.1481 143.372 66.8895C143.328 66.5632 143.46 66.9191 143.352 66.7884C143.31 66.6834 143.31 66.6834 143.358 66.7807C143.419 66.8762 143.405 66.878 143.344 66.7825C143.252 66.6636 143.283 66.6871 143.427 66.8335C143.381 66.7983 143.34 66.7553 143.294 66.7201C143.248 66.6849 143.201 66.6496 143.155 66.6144C143.341 66.7068 143.364 66.7244 143.23 66.6595C143.199 66.636 142.863 66.5019 143.066 66.5711C143.291 66.6444 142.855 66.5445 142.798 66.5383C143.058 66.5653 142.859 66.4747 142.787 66.5537C142.966 66.4948 142.985 66.4852 142.853 66.5309C142.722 66.5902 142.74 66.5671 142.908 66.475C142 67.0278 140.834 67.0065 140.143 66.1035C139.537 65.3137 139.591 63.8801 140.505 63.3196Z" fill="#E6B431"/>
<path d="M126.756 82.8102C126.886 83.2496 126.438 82.6044 126.806 82.9211C127.026 83.1127 127.24 83.3121 127.448 83.5192C127.971 84.0504 128.356 84.6971 128.439 85.4544C128.587 86.8466 127.647 88.0822 126.367 88.5472C124.996 89.0522 123.547 88.6817 122.559 87.6255C121.659 86.661 121.342 85.3472 121.23 84.0677C121.141 83.1106 121.621 82.4153 122.433 81.9724C123.226 81.5392 124.141 81.2969 125.04 81.2369C126.133 81.1781 127.07 81.8053 127.264 82.9281C127.587 84.8434 126.266 86.5324 124.418 86.8946C123.373 87.0992 122.339 86.2153 122.194 85.2034C122.043 84.0887 122.834 83.1917 123.886 82.9794C123.697 83.0189 123.52 83.0914 123.434 83.2694C123.363 83.4106 123.422 83.8456 123.355 83.4532C124.096 84.0169 124.837 84.5807 125.579 85.1444C124.878 85.1844 124.579 85.2736 123.946 85.6089C124.342 84.9111 124.747 84.2192 125.149 83.5136C125.2 84.0883 125.21 84.5715 125.458 84.967C125.391 84.8308 125.422 84.8543 125.552 85.0511C125.512 84.9596 125.435 84.9009 125.332 84.8595C125.228 84.8044 125.121 84.7843 125.007 84.8068C125.23 84.7695 125.23 84.7695 125.014 84.8127C124.569 85.2056 124.511 85.4905 124.567 86.1059C124.586 86.1933 124.638 86.2694 124.713 86.3145C124.611 86.2246 124.509 86.1346 124.407 86.0447C123.847 85.5462 123.313 85.0304 123.095 84.2916C122.783 83.2748 123.115 82.1496 124.17 81.7084C125.092 81.3614 126.443 81.7798 126.756 82.8102Z" fill="#E6B431"/>
<path d="M109 77.2785C110.715 77.6197 112.269 78.8621 112.523 80.6761C112.784 82.4959 111.595 84.1878 109.846 84.6612C108.022 85.1517 106.132 84.0312 105.865 82.1221C105.621 80.4246 106.757 78.5461 108.564 78.3971C109.591 78.3127 110.687 78.9874 110.788 80.0883C110.878 81.1076 110.2 82.2246 109.097 82.3123C108.926 82.3287 108.926 82.3287 109.101 82.291C109.237 82.2725 109.367 82.2132 109.473 82.1227C109.539 82.0514 109.613 81.9859 109.68 81.9145C109.588 82.0517 109.58 82.0459 109.684 81.8933C109.772 81.7289 109.78 81.7348 109.711 81.8895C109.735 81.8101 109.764 81.723 109.78 81.6378C109.693 82.0097 109.729 81.2571 109.788 81.6436C109.757 81.4125 109.663 81.2314 109.489 81.0751C109.387 80.9851 108.963 80.8213 109.273 80.9106C109.201 80.8927 108.602 80.8635 108.938 80.8386C108.864 80.8555 108.784 80.8802 108.718 80.9031C108.882 80.8324 108.895 80.8305 108.747 80.913C108.461 81.0003 108.877 80.9022 108.87 80.7993C108.815 80.8552 108.747 80.913 108.692 80.9689C108.796 80.8163 108.804 80.8222 108.712 80.9593C108.635 81.1082 108.628 81.1023 108.695 80.934C108.677 81.0056 108.653 81.0851 108.627 81.1509C108.643 81.3702 108.643 81.4187 108.623 81.2692C108.596 81.1274 108.615 81.1663 108.666 81.3878C108.484 81.0665 108.768 81.5748 108.676 81.3588C108.579 81.1505 108.476 81.1576 108.686 81.3298C108.524 81.2064 108.264 81.131 108.627 81.2479C108.518 81.2142 108.08 81.1006 108.528 81.1851C107.518 80.9902 106.62 80.0878 106.802 78.983C106.96 78.0061 107.911 77.0597 109 77.2785Z" fill="#E6B431"/>
<path d="M87.4228 76.8372C89.1752 77.0972 91.0565 78.1011 91.3582 80.0124C91.682 82.0868 89.8043 83.7547 87.7897 83.5512C85.775 83.3477 84.6012 81.2851 85.3528 79.4313C85.9918 77.8696 87.9561 76.8892 89.5384 77.6292C90.4707 78.0701 91.0939 79.1899 90.6351 80.1939C90.2138 81.1167 89.0627 81.7649 88.0705 81.2907C87.9234 81.2276 87.9371 81.2257 88.1172 81.2774C88.2624 81.3268 88.402 81.3355 88.5574 81.3074C88.1904 81.3574 88.9776 81.1395 88.6313 81.2905C88.715 81.2445 88.7987 81.1985 88.8883 81.1447C88.7264 81.2775 88.7675 81.2235 89.0058 80.9903C88.9452 81.0539 88.7687 81.3341 88.9415 81.0267C88.9925 80.9436 89.0339 80.8411 89.0423 80.7499C89.0339 80.8411 89.0158 80.352 88.9643 80.2275C88.8611 79.9784 88.6434 79.7519 88.3879 79.6551C88.1108 79.6028 88.0527 79.583 88.1942 79.6053C88.3416 79.6199 88.2795 79.6214 88.0079 79.6099C88.3728 79.5949 87.6615 79.7609 88.0196 79.5945C87.9418 79.6328 87.8716 79.6769 87.7938 79.7152C87.5963 79.9429 87.5475 79.991 87.6414 79.8675C87.7354 79.7439 87.702 79.8038 87.5218 80.0568C87.4933 80.2545 87.4726 80.4582 87.4441 80.6559C87.4145 80.4384 87.4182 80.4656 87.4765 80.7415C87.5207 80.8116 87.5571 80.8759 87.5954 80.9537C87.4169 80.6596 87.8796 81.1089 87.5645 80.9303C87.1373 80.6907 87.9769 81.0611 87.4969 80.891C87.344 80.8357 87.2046 80.7785 87.0458 80.7309C87.3634 80.8261 87.1193 80.7624 86.9352 80.7321C85.9175 80.5798 85.0373 79.6057 85.2094 78.53C85.3984 77.5281 86.3353 76.6806 87.4228 76.8372Z" fill="#E6B431"/>
<path d="M64.9735 84.0808C65.1866 82.951 65.5691 81.7427 66.5941 81.084C67.2937 80.6288 68.1042 80.4284 68.9111 80.7617C69.4684 80.9905 69.9608 81.3527 70.3379 81.8345C71.6962 83.5743 71.1223 86.4286 68.923 87.1572C66.9084 87.8191 64.4507 86.5473 64.3045 84.3033C64.1651 82.2107 66.16 80.1323 68.3281 80.5988C69.3337 80.815 70.2341 81.6825 70.054 82.8008C69.8962 83.7777 68.9351 84.7531 67.8519 84.5267C67.3521 84.4147 68.1047 84.4508 67.8074 84.5051C67.9008 84.4785 67.9882 84.4597 68.0815 84.4332C67.8927 84.5212 67.9357 84.4807 68.2258 84.3235C68.1615 84.36 68.0991 84.41 68.0426 84.4523C68.109 84.3809 68.1813 84.3019 68.2555 84.2364C68.2008 84.2923 68.1597 84.3464 68.1127 84.4082C68.2719 84.1026 68.3053 84.0427 68.207 84.2361C68.0864 84.571 68.2429 83.7881 68.2249 84.1644C68.2096 83.848 68.208 83.7859 68.2358 83.9898C68.217 83.9024 68.1904 83.8091 68.1716 83.7216C68.2596 83.9104 68.2327 83.8656 68.0833 83.5814C68.2238 83.7492 68.1756 83.7003 67.9483 83.4543C68.2164 83.6948 67.5263 83.3041 67.8884 83.421C68.2872 83.5536 67.4253 83.3248 67.8457 83.4129C68.0552 83.426 68.0008 83.4333 67.6866 83.4138C67.842 83.3857 67.8362 83.3935 67.669 83.437C67.496 83.4882 67.496 83.4882 67.6399 83.4271C67.3652 83.596 67.3204 83.6229 67.4842 83.5037C67.3575 83.5901 67.2676 83.6924 67.2104 83.8317C67.1356 83.9942 67.122 83.9961 67.1986 83.8472C67.1365 84.1533 67.1207 84.1901 67.155 83.9846C67.1649 84.2602 67.1741 84.3282 67.1538 84.1786C67.1181 83.7127 67.2995 84.4358 67.1386 84.1184C67.2884 84.3542 67.3172 84.4126 67.2384 84.2917C67.2038 84.2411 67.1692 84.1904 67.121 84.1416C67.104 84.3723 67.8924 84.5697 67.3289 84.3971C67.8275 84.3985 68.3185 84.394 68.823 84.3876C68.6518 84.4525 68.6364 84.4407 68.7785 84.366C68.8953 84.3086 68.9812 84.2276 69.0498 84.1214C68.8171 84.3954 69.1136 83.8773 69.0462 84.0942C69.0143 84.2162 68.9553 84.3419 68.9157 84.4581C69.0264 84.1523 68.9376 84.3651 68.9092 84.5629C68.722 85.5784 67.8041 86.4648 66.7071 86.2887C65.6934 86.1151 64.7683 85.1679 64.9735 84.0808Z" fill="#E6B431"/>
<path d="M82.0049 68.6709C82.641 69.0205 83.2205 69.4124 83.6374 70.0341C84.1887 70.8799 84.5351 71.8989 83.9991 72.8442C83.524 73.6773 82.623 74.0769 81.6807 73.9697C80.4631 73.8239 79.6459 72.7028 79.7605 71.5102C79.8488 70.4805 80.9295 69.6204 81.9626 69.7844C83.0461 69.9623 83.7812 70.8869 83.6885 71.9864C83.6845 72.0078 83.6863 72.0213 83.6823 72.0427C83.6796 71.87 83.6787 71.7109 83.6759 71.5381C83.6778 71.5517 83.6874 71.5712 83.6833 71.5925C83.6398 71.4254 83.5982 71.2718 83.5546 71.1046C83.5642 71.1241 83.5719 71.13 83.5815 71.1494C83.499 71.0014 83.4166 70.8534 83.3264 70.6995C83.3419 70.7113 83.3437 70.7249 83.3592 70.7366C83.2319 70.6155 83.1105 70.4866 82.9833 70.3655C82.9987 70.3772 83.0142 70.3889 83.0219 70.3948C82.8711 70.3046 82.7145 70.222 82.5638 70.1318C82.5946 70.1553 82.6237 70.1652 82.6663 70.1732C82.5016 70.1333 82.337 70.0934 82.1646 70.0476C82.2072 70.0557 82.2422 70.0578 82.2771 70.06C82.1044 70.0628 81.9452 70.0636 81.7725 70.0664C81.8074 70.0686 81.8482 70.063 81.8813 70.0516C81.7141 70.0951 81.5606 70.1368 81.3934 70.1803C81.4129 70.1707 81.4265 70.1689 81.4459 70.1593C81.2979 70.2418 81.1499 70.3242 80.996 70.4144C81.0291 70.403 81.0544 70.3857 81.0779 70.3548C80.9567 70.4821 80.8279 70.6034 80.7067 70.7307C80.7185 70.7152 80.7244 70.7075 80.7284 70.6862C80.6381 70.837 80.5556 70.9936 80.4654 71.1443C80.4694 71.123 80.4752 71.1153 80.4793 71.094C80.4394 71.2586 80.3995 71.4233 80.3537 71.5957C80.3577 71.5744 80.3559 71.5608 80.3522 71.5336C80.3966 71.8598 80.4428 72.1997 80.4872 72.526C80.4378 72.3665 80.3767 72.2225 80.2943 72.0745C80.3767 72.2225 80.4592 72.3706 80.5493 72.5245C80.4496 72.3511 80.3322 72.2009 80.1877 72.0544C80.3149 72.1756 80.4363 72.3044 80.5636 72.4256C80.444 72.3103 80.3128 72.2105 80.1697 72.1261C80.3205 72.2163 80.4771 72.2989 80.6279 72.3891C80.5988 72.3792 80.5679 72.3558 80.5389 72.3459C80.0594 72.0788 79.6675 71.7929 79.4498 71.2617C79.2723 70.822 79.2375 70.2106 79.4403 69.7676C79.653 69.2956 80.0226 68.8576 80.5244 68.6785C80.9659 68.5146 81.57 68.4255 82.0049 68.6709Z" fill="#E6B431"/>
<path d="M151.14 78.1828C150.897 75.8897 153.008 73.5947 155.395 74.0936C157.961 74.6306 159.164 77.7762 157.59 79.8943C156.01 82.0201 152.52 81.4498 151.427 79.1685C150.361 76.9319 152.236 74.1774 154.668 74.2964C157.77 74.4489 158.5 79.0989 155.682 80.2716C154.725 80.665 153.465 80.2065 153.099 79.197C152.733 78.1875 153.152 77.0436 154.174 76.6138C153.964 76.6978 153.782 76.8887 153.678 77.0898C153.644 77.1497 153.533 77.5525 153.542 77.4129C153.572 77.1803 153.572 77.8865 153.522 77.471C153.546 77.6477 153.613 77.784 153.715 77.9224C153.553 77.7021 153.761 77.9576 153.838 78.0164C154.016 78.1514 154.233 78.2189 154.454 78.2164C154.516 78.2149 154.905 78.1204 154.767 78.1739C154.524 78.2693 155.197 77.9769 155.122 77.8833C155.122 77.8833 154.956 78.0859 154.963 78.0918C155.008 78.0164 155.054 77.941 155.099 77.8656C155.038 78.0263 155.032 78.034 155.079 77.8752C155.301 77.5682 154.898 78.0661 155.086 77.7705C155.077 77.6055 155.085 77.6114 155.101 77.7822C155.077 77.7025 155.06 77.6286 155.035 77.5489C154.991 77.4303 154.849 77.2489 154.997 77.4711C154.941 77.4164 154.885 77.3616 154.829 77.3069C154.981 77.4108 154.983 77.4244 154.846 77.3323C154.479 77.1746 155.127 77.4118 154.773 77.3008C154.519 77.2176 155.099 77.2564 154.608 77.3094C154.635 77.3057 154.899 77.2628 154.901 77.2764C154.857 77.2063 154.547 77.4215 154.508 77.4407C154.884 77.2026 154.343 77.6569 154.504 77.462C154.629 77.3134 154.415 77.6748 154.392 77.7057C154.358 77.8627 154.356 77.849 154.386 77.6649C154.389 77.7406 154.391 77.8027 154.394 77.8784C154.291 77.7264 154.364 77.7579 154.437 77.935C154.402 77.8358 154.224 77.5901 154.378 77.7561C154.597 77.9962 154.113 77.6398 154.422 77.8262C154.541 77.9415 154.528 77.9433 154.387 77.824C154.455 77.8633 154.516 77.9103 154.592 77.9554C154.723 78.0067 154.902 77.9963 154.673 77.9928C154.749 77.9894 155.242 77.9015 155.055 77.9546C154.935 77.9848 154.81 78.1334 154.962 77.9811C155.077 77.9101 155.091 77.9083 155.009 77.9679C154.89 78.0602 154.933 78.0197 155.122 77.8347C155.109 77.8366 154.95 78.0451 154.952 78.0587C154.931 78.0062 155.179 77.6954 155.03 77.9719C155.086 77.722 155.1 77.6716 155.085 77.819C155.071 77.9663 155.077 77.9101 155.092 77.6657C155.198 78.6967 154.488 79.7903 153.401 79.8898C152.331 79.9661 151.261 79.2741 151.14 78.1828Z" fill="#E6B431"/>
<path d="M111.617 90.2015C113.554 89.5779 115.512 89.8237 117.195 90.9932C117.851 91.4439 118.218 92.5639 117.833 93.2948C117.153 94.6059 116.289 95.9351 114.832 96.4726C113.435 96.995 111.823 96.6952 110.776 95.6191C109.651 94.4707 109.605 92.6562 110.581 91.3879C111.452 90.2586 112.886 89.752 114.217 89.4601C115.266 89.2342 116.304 90.1453 116.441 91.1513C116.594 92.2796 115.799 93.1494 114.749 93.3753C114.643 93.4037 114.481 93.4395 114.681 93.3846C114.522 93.4339 114.37 93.4892 114.219 93.5445C114.094 93.596 113.975 93.6399 113.853 93.705C113.574 93.8468 114.04 93.5549 113.802 93.7396C113.545 93.9339 113.686 93.9562 113.724 93.7779C113.689 93.8242 113.66 93.8628 113.624 93.9092C113.666 93.8551 113.699 93.7952 113.74 93.7412C113.796 93.5397 113.828 93.2721 113.733 93.0775C113.694 92.9996 113.341 92.6946 113.525 92.8219C113.762 92.9904 113.261 92.6087 113.486 92.7925C113.589 92.834 113.589 92.834 113.48 92.8003C113.366 92.7743 113.372 92.7666 113.479 92.7867C113.591 92.7991 113.591 92.7991 113.479 92.7867C113.341 92.7916 113.366 92.7743 113.564 92.7543C113.473 92.7459 113.395 92.7842 113.327 92.8419C113.44 92.7573 113.561 92.6786 113.658 92.5822C113.498 92.7286 113.68 92.5377 113.721 92.4837C113.946 92.1553 114.056 91.995 114.15 91.8229C114.359 92.5907 114.575 93.3644 114.789 94.1245C114.621 94.0089 114.302 93.8516 113.998 93.803C113.912 93.7869 113.324 93.7908 113.598 93.7674C113.509 93.7726 112.858 93.9235 113.103 93.8417C112.088 94.1668 110.953 93.8158 110.52 92.7671C110.161 91.8605 110.597 90.5343 111.617 90.2015Z" fill="#E6B431"/>
<path d="M146.879 49.8727C147.904 49.2624 148.978 49.0678 150.126 49.4654C151.078 49.7996 151.904 50.5735 152.254 51.5227C152.575 52.3999 152.309 53.246 151.63 53.8508C150.541 54.8021 148.993 54.9781 147.663 54.5153C146.486 54.1078 146.024 52.4399 146.822 51.4867C147.567 50.603 148.648 49.9989 149.824 50.4549C150.966 50.9088 151.654 52.2483 151.149 53.4246C150.598 54.7113 149.002 55.0946 147.882 54.2916C146.708 53.4476 146.767 51.7987 147.829 50.8996C148.617 50.2315 150.007 50.4231 150.593 51.2711C151.229 52.1814 151.067 53.3251 150.222 54.0355C150.21 54.051 150.191 54.0605 150.179 54.076C150.43 53.6333 150.687 53.1829 150.939 52.7402C150.935 52.7616 150.929 52.7693 150.925 52.7906C150.88 52.4643 150.834 52.1245 150.79 51.7982C150.342 51.4576 149.894 51.117 149.44 50.7842C149.114 50.8286 148.774 50.8748 148.448 50.9192C148.467 50.9096 148.488 50.9137 148.508 50.9041C148.239 51.1138 147.962 51.3177 147.687 51.5351C147.626 51.6472 147.563 51.7457 147.502 51.8579C147.457 52.1894 147.42 52.5268 147.375 52.8583C147.811 53.3113 148.254 53.7702 148.69 54.2233C149.016 54.1789 149.356 54.1326 149.682 54.0882C149.464 54.1663 149.499 54.12 149.794 53.9415C150.067 53.7105 150.112 53.6836 149.949 53.8649C149.667 52.858 149.39 51.8433 149.108 50.8363C149.514 50.9748 148.718 50.8201 149.141 50.8249C148.887 50.8387 148.83 50.8325 148.974 50.8199C149.042 50.8106 149.11 50.8014 149.178 50.7921C149.104 50.8091 149.024 50.8338 148.951 50.8508C149.036 50.8183 149.122 50.7859 149.2 50.7476C149.129 50.7918 149.058 50.8224 148.987 50.8665C149.063 50.8146 149.132 50.7569 149.2 50.6992C148.987 51.4758 148.78 52.2448 148.575 53.0273C148.476 52.7569 148.625 53.1382 148.691 53.1639C148.699 53.1697 148.369 52.7853 148.66 53.0919C148.893 53.3301 148.701 53.1348 148.633 53.0956C148.416 52.9796 149.105 53.3568 148.747 53.1701C148.494 53.0384 148.861 53.2446 148.918 53.2022C148.912 53.21 148.7 53.1833 148.693 53.1775C148.79 53.1781 148.873 53.1806 148.97 53.1813C148.815 53.2093 148.821 53.2016 148.988 53.1581C149.134 53.1105 149.167 53.0991 149.075 53.1392C148.937 53.1927 149.001 53.1562 149.266 53.0163C148.382 53.5383 147.149 53.5883 146.502 52.6449C145.95 51.8476 145.932 50.4446 146.879 49.8727Z" fill="#E6B431"/>
<path d="M158.42 62.1341C159.943 60.4037 162.769 60.2613 164.206 62.219C165.55 64.0576 164.691 66.9023 162.57 67.7032C160.417 68.5155 157.751 66.8291 158.005 64.4267C158.243 62.2066 161.122 60.7762 162.907 62.2918C163.696 62.9529 163.993 64.2142 163.284 65.0652C162.623 65.8544 161.362 66.1506 160.511 65.4426C160.318 65.2958 160.39 65.3137 160.724 65.4828C160.9 65.6043 161.092 65.6405 161.294 65.5991C161.559 65.5078 161.619 65.4926 161.481 65.546C161.343 65.5994 161.401 65.5707 161.64 65.4481C161.372 65.6093 161.73 65.3459 161.803 65.2183C161.909 65.0308 161.955 64.8099 161.912 64.5942C161.869 64.3301 161.738 64.1817 161.563 64.0118C161.927 64.3499 161.231 63.7107 161.607 64.0334C161.535 64.0155 161.464 63.9975 161.398 63.9719C161.58 63.9886 161.594 63.9867 161.441 63.9799C161.334 63.9598 161.227 63.9882 161.13 64.0361C160.933 64.1667 160.896 64.1995 161.015 64.1071C161.206 63.9357 160.741 64.3867 161.007 64.1012C160.891 64.3178 160.856 64.3641 160.913 64.2248C160.964 64.0932 160.956 64.1358 160.889 64.3527C160.905 63.9628 161.019 64.6465 160.896 64.2479C160.92 64.3276 161.145 64.7056 161.014 64.5573C160.881 64.3953 161.234 64.7004 161.302 64.7396C160.849 64.4688 161.652 64.9204 161.18 64.7077C161.393 64.6995 161.422 64.7094 161.279 64.722C161.137 64.7482 161.17 64.7368 161.378 64.6878C161.067 64.7924 161.448 64.6436 161.555 64.5182C160.871 65.2898 159.649 65.6154 158.782 64.8956C158.016 64.2522 157.681 62.9616 158.42 62.1341Z" fill="#E6B431"/>
<path d="M130.233 95.7889C131.885 96.2287 133.495 97.5258 133.756 99.2971C134.006 100.925 133.061 102.632 131.515 103.223C129.711 103.912 127.849 102.69 127.629 100.817C127.425 99.065 128.819 97.1999 130.706 97.5384C131.728 97.7178 132.608 98.6434 132.432 99.7404C132.264 100.746 131.321 101.65 130.23 101.466C130.005 101.442 130.085 101.417 130.471 101.406C130.708 101.415 130.914 101.353 131.109 101.208C131.189 101.135 131.275 101.054 131.355 100.981C131.508 100.683 131.559 100.6 131.504 100.753C131.415 100.966 131.581 100.299 131.557 100.635C131.543 100.332 131.548 100.262 131.568 100.412C131.588 100.561 131.572 100.488 131.504 100.192C131.326 99.7525 130.797 99.423 130.323 99.5014C130.058 99.5927 129.99 99.602 130.128 99.5486C130.259 99.4893 130.208 99.5239 129.955 99.6484C130.255 99.4621 129.759 99.8896 129.9 99.7043C130.041 99.5189 129.721 100.165 129.867 99.7642C129.993 99.4216 129.822 100.047 129.859 99.8068C129.888 99.5606 129.831 100.212 129.851 99.8494C129.908 100.063 129.913 100.104 129.86 99.9659C129.8 99.8356 129.81 99.855 129.896 100.03C129.624 99.7626 130.057 100.091 129.852 99.9601C129.73 99.8797 129.613 99.778 129.491 99.6977C129.852 99.9116 129.348 99.6618 129.295 99.6343C129.127 99.5672 128.955 99.5214 128.774 99.4698C127.769 99.205 127.272 97.7911 127.678 96.9051C128.153 95.8159 129.156 95.5062 130.233 95.7889Z" fill="#E6B431"/>
<path d="M134.106 77.0398C136.264 75.2438 139.91 76.6514 140.309 79.4288C140.715 82.212 137.414 84.7106 134.861 83.3548C134.078 82.9422 133.522 82.2147 133.637 81.2783C133.883 79.3202 135.185 77.5922 137.044 76.9099C138.046 76.5382 139.205 76.9689 139.627 77.9845C140.021 78.9418 139.56 80.1883 138.553 80.5677C137.893 80.8098 137.63 81.1088 137.559 81.7622C137.147 81.0707 136.742 80.385 136.335 79.6857C136.351 79.6975 136.617 79.8273 136.623 79.8196C136.655 79.746 136.069 79.7635 136.311 79.7651C136.589 79.7689 136.01 79.8407 136.28 79.7901C136.334 79.7827 136.625 79.6255 136.412 79.7444C136.175 79.8806 136.535 79.6307 136.578 79.5903C136.461 79.6962 136.338 79.7614 136.518 79.6054C136.407 79.7037 136.398 79.8918 136.461 79.6477C136.444 79.7194 136.413 80.1597 136.399 79.9539C136.381 79.7694 136.462 80.1115 136.477 80.1717C136.539 80.3157 136.365 80.1594 136.526 80.2206C136.744 80.3016 136.452 80.189 136.365 80.1108C136.473 80.193 136.634 80.3028 136.421 80.1655C136.224 80.04 136.314 80.1939 136.471 80.1795C136.192 80.2106 136.46 80.1949 136.524 80.1584C136.127 80.3925 136.744 79.9969 136.509 80.1467C136.273 80.2965 136.885 79.8601 136.512 80.1739C135.691 80.8534 134.371 80.6176 133.748 79.8024C133.061 78.9266 133.278 77.727 134.106 77.0398Z" fill="#E6B431"/>
<path d="M167.632 48.1763C170.086 49.7255 171 52.9796 169.977 55.6389C169.533 56.8001 167.931 57.2882 166.948 56.4803C164.974 54.8451 164.254 52.25 165.138 49.8382C165.369 49.1974 166.026 48.6857 166.702 48.6145C168.047 48.4798 169.404 48.9875 170.165 50.1509C170.743 51.0415 170.698 52.2384 169.793 52.9154C168.801 53.6597 167.633 53.9779 166.394 53.828C163.871 53.5067 164.348 49.5787 166.87 49.9001C167.159 49.9369 167.161 49.9505 167.393 49.7735C167.268 50.6905 167.146 51.621 167.021 52.538C166.749 52.1113 166.975 52.5513 167.233 52.5161C167.752 52.1063 168.278 51.7023 168.797 51.2924C168.524 52.0357 168.767 52.8542 169.337 53.3237C168.33 53.6061 167.315 53.8827 166.308 54.1651C166.742 53.0329 166.204 51.9292 165.242 51.3193C164.334 50.7506 164.254 49.3491 164.865 48.546C165.558 47.6348 166.73 47.5999 167.632 48.1763Z" fill="#E6B431"/>
<path d="M149.143 90.2172C151.502 90.9139 152.453 94.343 150.759 96.1382C150.148 96.7822 149.321 97.1162 148.458 96.7768C145.766 95.717 144.938 92.4304 146.432 90.0808C147.053 89.1031 148.341 89.2048 149.205 89.7034C151.124 90.8338 151.854 93.4968 150.969 95.4934C150.445 96.6794 148.995 97.1122 147.941 96.3348C145.894 94.8272 145.561 92.027 146.906 89.954C147.467 89.0884 148.9 88.9349 149.679 89.5765C150.554 90.3022 150.657 91.4166 150.057 92.3498C150.159 92.1836 150.143 92.1719 150.065 92.3557C149.997 92.5241 150.028 92.5476 150.045 92.3653C150.027 92.4855 150.014 92.5979 150.01 92.7162C150.014 92.4388 150.033 92.6854 150.046 92.829C150.091 93.1068 149.945 92.5936 150.055 92.8485C150.075 92.8874 150.241 93.197 150.12 93.0197C150.005 92.8346 150.224 93.1232 150.243 93.1622C150.397 93.3766 149.925 92.9078 150.325 93.1996C149.318 93.482 148.303 93.7586 147.296 94.041C147.343 93.9307 147.385 93.8281 147.424 93.712C147.313 94.0663 147.395 93.7021 147.404 93.6109C147.421 93.3316 147.445 93.8615 147.394 93.5914C147.374 93.4904 147.253 93.1675 147.379 93.4827C147.337 93.3777 147.288 93.2667 147.246 93.1617C147.332 93.3369 147.334 93.3019 147.224 93.1576C147.005 92.869 147.354 93.1954 147.174 93.0952C147.054 93.0285 146.937 92.9268 146.809 92.8541C147.734 92.7283 148.658 92.6025 149.583 92.4767C149.81 92.1134 149.622 92.409 149.596 92.5233C149.552 92.6608 149.554 92.6259 149.624 92.4226C149.617 92.4789 149.611 92.5351 149.603 92.5777C149.683 92.5045 149.57 92.2845 149.618 92.638C149.633 92.7952 149.769 92.9843 149.628 92.7059C149.681 92.7955 149.717 92.9084 149.752 93.0075C149.597 92.634 149.705 92.9723 149.812 93.0409C150.009 93.1664 149.551 92.8064 149.843 93.0644C150.142 93.3283 149.543 92.946 149.953 93.1117C149.185 93.32 148.411 93.5361 147.651 93.7503C147.966 93.4167 147.767 93.5823 147.693 93.9039C147.712 93.6867 147.727 93.6984 147.726 93.941C147.719 93.8381 147.704 93.7293 147.683 93.6283C147.749 93.8616 147.738 93.877 147.661 93.6728C147.788 93.8909 147.79 93.9045 147.655 93.729C147.888 93.9673 148.166 94.0196 147.718 93.8866C146.723 93.5928 146.204 92.2234 146.621 91.322C147.059 90.2655 148.09 89.9036 149.143 90.2172Z" fill="#E6B431"/>
<path d="M177.96 65.609C178.013 64.8332 178.323 64.0572 178.855 63.4864C179.435 62.8674 180.322 62.4696 181.156 62.8477C183.832 64.0413 183.999 68.3247 181.109 69.4174C178.29 70.4794 175.671 67.2567 176.773 64.6212C177.388 63.139 179.208 62.2682 180.717 62.9283C182.16 63.5626 182.935 65.3334 182.403 66.8181C181.877 68.2951 180.23 69.1632 178.706 68.9552C177.062 68.7289 175.858 67.4597 175.274 65.9676C174.343 63.6019 177.993 62.0875 178.932 64.459C178.962 64.531 179.251 65.1771 179.306 65.0726C179.363 64.9818 178.915 65.1535 178.884 65.1785C178.654 65.3691 178.569 65.8652 178.705 66.1514C178.841 66.4375 179.05 66.4506 179.358 66.5263C179.99 66.6896 180.08 66.5389 180.454 66.0796C180.486 65.8605 180.488 65.8256 180.474 65.9729C180.457 66.1067 180.454 66.0796 180.475 65.876C180.454 65.8234 180.433 65.7709 180.417 65.7106C180.498 65.8936 180.501 65.9207 180.429 65.7922C180.35 65.6714 180.367 65.6967 180.479 65.8546C180.43 65.8058 180.384 65.7706 180.336 65.7217C180.382 65.757 180.421 65.7863 180.467 65.8216C180.388 65.7492 180.299 65.706 180.2 65.6917C179.962 65.6688 179.678 65.6727 179.479 65.8383C179.398 65.8979 179.339 65.9751 179.317 66.0681C179.26 66.2074 179.264 66.1861 179.348 65.9946C179.334 66.045 179.328 66.1012 179.314 66.1515C179.335 65.9479 179.337 65.913 179.342 66.0508C179.349 66.1537 179.342 66.1478 179.327 66.0391C179.3 65.8973 179.31 65.9167 179.344 66.1129C179.467 66.2554 179.522 66.4071 179.721 66.4977C180.489 66.2893 181.263 66.0733 182.023 65.859C181.74 66.1676 181.931 65.643 181.905 66.062C181.828 67.1248 180.731 67.9111 179.703 67.7879C178.58 67.6776 177.885 66.6854 177.96 65.609Z" fill="#E6B431"/>
<path d="M165.119 80.9883C167.296 80.8028 169.414 82.3284 169.616 84.5786C169.818 86.7182 168.043 88.6836 165.929 88.819C163.588 88.9645 161.658 86.8387 161.896 84.5216C162.006 83.4474 162.573 82.4771 163.458 81.8582C164.538 81.095 165.777 81.0373 167.012 81.3676C168.041 81.6499 168.478 83.0304 168.109 83.9322C167.675 85.0159 166.573 85.3113 165.545 85.0289C165.767 85.0886 165.87 85.033 165.616 85.0954C165.863 85.0272 165.846 84.9048 165.699 85.0979C165.819 84.957 165.838 84.9475 165.75 85.0633C165.656 85.1868 165.674 85.1637 165.795 84.9879C165.831 84.796 165.841 84.767 165.819 84.9085C165.81 85.0481 165.807 85.0209 165.816 84.8328C165.849 85.029 165.853 85.0562 165.829 84.928C165.796 84.7939 165.808 84.827 165.874 85.0117C165.769 84.8461 165.759 84.8266 165.844 84.9397C165.936 85.0587 165.905 85.0352 165.767 84.881C165.935 84.9966 165.952 85.0219 165.823 84.9357C165.753 84.8828 165.666 84.8532 165.577 84.8584C165.773 84.8733 165.796 84.8909 165.656 84.8822C165.518 84.8871 165.538 84.8775 165.73 84.8652C165.67 84.8803 165.615 84.8878 165.563 84.9088C165.765 84.8189 165.773 84.8247 165.561 84.9436C165.605 84.9168 165.648 84.8763 165.693 84.8495C165.867 84.7012 165.861 84.7089 165.676 84.8726C165.711 84.8263 165.74 84.7877 165.775 84.7413C165.654 84.9656 165.648 84.9734 165.736 84.7605C165.717 84.8186 165.705 84.8825 165.691 84.9329C165.71 84.7157 165.715 84.708 165.697 84.9252C165.71 84.9718 165.731 85.0243 165.738 85.0787C165.641 84.8704 165.654 84.8686 165.764 85.0614C165.729 85.0108 165.696 84.9737 165.662 84.923C165.826 85.0599 165.843 85.0852 165.733 84.9894C165.669 84.9288 165.6 84.876 165.525 84.8309C165.704 84.931 165.735 84.9545 165.602 84.8896C165.47 84.8383 165.491 84.8423 165.679 84.8998C165.454 84.875 165.454 84.875 165.664 84.8881C164.604 84.9839 163.596 84.2903 163.44 83.1969C163.289 82.1927 164.051 81.0782 165.119 80.9883Z" fill="#E6B431"/>
</svg>
