<svg width="126" height="77" viewBox="0 0 126 77" fill="none" xmlns="http://www.w3.org/2000/svg">
<path d="M66.0279 2.42628C67.2944 4.23688 67.8438 6.23485 67.7765 8.43913C67.7229 10.3233 65.3884 10.9185 64.0565 10.0062C61.8526 8.50276 60.7852 5.99593 60.878 3.38015C60.9228 1.79094 62.7482 1.0529 64.058 1.50299C66.2326 2.25155 69.0882 4.46606 68.6844 7.0752C68.228 10.0179 64.5681 10.467 62.3943 9.24505C60.2297 8.02999 59.1638 4.93539 61.4713 3.24225C63.5558 1.71002 66.9884 3.12792 66.5947 5.93154C66.1748 8.90193 61.5449 8.34063 61.9649 5.37024C61.8117 6.40297 63.2563 7.90372 64.2183 6.99756C64.4081 6.65347 64.6049 6.30026 64.7947 5.95617C64.8261 5.70709 64.7864 5.47586 64.6597 5.26461C64.5097 5.12181 64.4985 5.09884 64.635 5.20266C64.7785 5.29738 64.7624 5.29957 64.6008 5.19101C64.7282 5.28791 64.8608 5.30251 64.8677 5.2934C64.8105 5.29302 64.7624 5.29956 64.7118 5.34725C64.1786 5.74624 64.0189 6.37183 64.2237 7.21712C64.1258 7.157 63.8928 6.76441 63.8655 6.74365C63.418 6.27412 62.9141 6.04894 62.314 5.83684C63.3793 5.21039 64.4287 4.58607 65.494 3.95962C65.4848 4.31177 65.6071 4.85004 65.8852 5.33445C66.0704 5.67645 66.3795 5.96899 66.8758 6.31762C65.6327 6.83769 64.3988 7.36468 63.1558 7.88475C63.1822 6.99983 62.8413 5.99353 62.3247 5.25596C61.6043 4.21972 61.7351 2.78203 62.7626 1.99752C63.7373 1.24468 65.3075 1.39003 66.0279 2.42628Z" fill="#F2CF74"/>
<path d="M46.9043 14.0292C44.0947 11.7921 47.4916 7.55152 50.3596 9.61746C52.2784 11.0047 52.941 14.554 51.3644 16.4007C49.3867 18.7181 46.1249 17.4157 45.1951 14.8412C44.3396 12.4524 45.1673 9.72025 46.5597 7.71916C47.5018 6.36689 49.2745 6.68052 50.2647 7.72084C52.3406 9.90274 52.8331 13.5813 51.3655 16.2292C50.7567 17.3321 49.6291 18.0404 48.3426 17.5219C45.8494 16.5311 44.8239 13.9124 45.538 11.4243C45.8868 10.2099 47.482 9.699 48.5609 10.1315C49.8291 10.6363 50.2024 11.94 49.8536 13.1545C49.8722 13.1111 49.8839 13.0769 49.8933 13.0267C49.8785 12.8573 49.8785 12.8573 49.9003 13.0175C49.9003 13.0175 49.8678 13.0791 49.9858 13.2263C49.8158 12.9964 50.0932 13.2361 50.0837 13.2864C50.1165 13.1677 49.5004 12.9577 50.0615 13.1833C49.0592 13.6135 48.0409 14.0459 47.0386 14.476C47.8511 13.0108 47.7199 11.7475 46.5593 10.5345C47.792 10.5381 49.0316 10.5326 50.2643 10.5362C49.9988 10.9233 49.751 11.3813 49.6241 11.8882C49.556 12.1668 49.4965 12.5094 49.4946 12.7953C49.4925 12.7793 49.6109 13.5303 49.5378 13.173C49.671 13.7914 49.6296 13.1278 49.4395 13.17C48.9203 12.8327 48.3478 12.9433 47.722 13.5017C47.6597 13.5836 47.6066 13.6724 47.5716 13.7751C47.6965 13.9132 47.5076 13.4248 47.4945 13.3287C47.5072 13.482 47.4824 13.4201 47.4064 13.1611C47.5265 13.3243 47.6744 13.4511 47.8429 13.5505C48.2337 13.6034 48.6313 13.6472 49.0221 13.7001C49.5033 13.2185 49.9844 12.7368 50.4565 12.2482C50.4042 11.8637 50.3497 11.463 50.2973 11.0785C50.3108 11.1174 50.3243 11.1564 50.3468 11.2023C50.0997 10.885 49.8503 10.5518 49.6031 10.2345C49.6395 10.2622 49.6759 10.2899 49.7123 10.3176C52.0647 12.1926 49.2567 15.9042 46.9043 14.0292Z" fill="#F2CF74"/>
<path d="M24.929 16.6695C25.2886 14.5152 27.453 13.6902 29.3548 14.533C30.8758 15.2155 31.9478 17.0362 32.12 18.6612C32.3118 20.4304 31.3991 22.1785 29.7001 22.8259C28.1479 23.4125 26.4143 22.7263 25.384 21.5119C24.2652 20.1872 24.1772 18.2815 25.1769 16.8724C26.2643 15.329 28.3511 14.8328 30.0924 15.3955C33.7964 16.5888 33.6334 21.8662 30.5433 23.6251C28.4381 24.8255 26.1609 23.6829 25.2143 21.584C24.4434 19.8773 24.3015 17.8157 24.7321 16.0027C25.0147 14.781 25.9839 13.8085 27.3277 13.9684C28.4726 14.1064 29.6514 15.3332 29.362 16.564C29.2395 17.1029 29.1352 17.6557 29.1612 18.207C29.1706 18.5158 29.2164 18.8524 29.299 19.1594C29.3281 19.2533 29.5564 19.6711 29.5327 19.7967C29.571 19.5385 28.2006 19.6026 28.2188 19.6165C28.1011 19.7712 28.1448 19.7326 28.3157 19.4891C28.2949 19.5164 28.2742 19.5436 28.2534 19.5709C28.4647 19.0852 28.124 19.7599 28.4926 19.7098C28.5246 19.7054 28.5789 19.8041 28.636 19.8045C28.9813 19.8228 29.1497 19.2613 29.1581 19.0235C29.1596 18.7948 29.0734 18.7004 28.9922 18.5238C28.9241 18.4433 28.8443 18.3971 28.7347 18.3712C29.0177 18.4714 28.9878 18.4918 28.6361 18.4254C28.474 18.374 28.3116 18.3798 28.1579 18.4497C27.876 18.537 27.7033 18.7074 27.633 18.9699C27.2742 19.2717 27.8041 19.3873 27.5066 19.0605C27.5838 19.148 27.3348 18.7575 27.3348 18.7575C27.2282 18.6333 27.2168 18.6104 27.3101 18.6956C27.597 18.8851 27.9353 18.9125 28.3067 18.764C28.624 18.5168 28.9573 18.2674 29.2745 18.0202C29.2399 18.0657 29.2054 18.1112 29.1547 18.1589C29.3081 17.7872 29.4593 17.3994 29.6128 17.0276C29.6055 17.0939 29.5891 17.1532 29.5748 17.2286C29.0475 20.1891 24.4176 19.6278 24.929 16.6695Z" fill="#F2CF74"/>
<path d="M15.9398 25.392C18.29 27.251 18.7145 30.49 16.9968 32.9189C16.258 33.966 14.7227 34.077 13.728 33.3637C9.79937 30.52 9.00725 25.1196 11.4606 21.0809C11.9532 20.2631 13.3346 19.9201 14.1735 20.3281C18.138 22.2367 19.7083 27.8984 16.4933 31.2574C15.5491 32.2346 13.6684 32.6864 12.7882 31.2557C11.4057 29.0121 11.7305 26.6014 13.6475 24.7982C14.568 23.9466 16.2008 24.312 16.906 25.236C17.7313 26.3233 17.3886 27.6429 16.4681 28.4945C16.6776 28.2946 16.5682 28.5706 16.4823 28.4191C15.2496 28.4155 14.01 28.421 12.7773 28.4174C13.7561 27.3947 13.9252 25.3398 12.4411 24.6278C13.3461 24.3822 14.2581 24.1275 15.154 23.875C13.9863 25.7884 14.813 28.3852 16.5337 29.6362C15.4441 29.7845 14.3545 29.9327 13.2649 30.081C13.5188 29.7282 13.4162 29.3342 13.0954 29.0759C10.7725 27.2377 13.5805 23.5261 15.9398 25.392Z" fill="#F2CF74"/>
<path d="M44.9589 27.3754C46.4474 26.7403 48.2396 26.1781 49.8877 26.2965C51.6433 26.4248 53.0202 27.7879 53.2077 29.5251C53.3781 31.0768 52.6654 32.6753 51.3811 33.5519C49.9865 34.5169 48.328 34.5632 46.7021 34.5478C45.1904 34.5332 44.2882 32.6403 44.8249 31.3677C45.6382 29.4291 47.1601 27.9 49.141 27.1652C50.3217 26.7271 51.6883 27.2348 52.1858 28.4319C52.6585 29.5671 52.1068 31.0295 50.9192 31.4767C50.064 31.789 49.5027 32.2815 49.1496 33.1048C48.5232 32.0395 47.8989 30.9902 47.2725 29.9248C47.6727 29.9275 48.3045 29.8333 48.609 29.7919C49.2248 29.6999 48.6811 29.6025 48.6683 29.8083C48.5594 30.0271 48.5572 30.0111 48.6756 29.742C48.6272 29.8057 48.6129 29.8811 48.6078 29.9634C48.6027 30.0457 48.6067 30.1349 48.6497 30.2107C48.8229 30.6441 49.1484 30.8773 49.6192 30.9193C49.6214 30.9353 48.7059 31.0435 48.6669 31.057C47.9983 31.1806 47.3839 31.403 46.76 31.6756C43.9826 32.8533 42.1975 28.5509 44.9589 27.3754Z" fill="#F2CF74"/>
<path d="M63.2551 22.9437C64.1451 24.2669 65.0352 25.5901 65.9252 26.9134C66.7632 28.1539 66.4157 29.8578 64.9662 30.4795C62.4043 31.5625 59.1557 29.9972 58.6597 27.1923C58.4349 25.9009 58.7871 24.531 59.6446 23.5166C60.6635 22.309 62.0001 21.817 63.5438 21.8272C64.8016 21.8355 65.7161 23.2779 65.5781 24.4228C65.4135 25.7916 64.2472 26.4563 62.9825 26.4571C63.2272 26.4564 63.2 26.4356 63.4247 26.3479C63.2338 26.5044 63.1879 26.527 63.303 26.4135C63.409 26.2929 63.3813 26.3293 63.2199 26.5227C63.3621 26.128 63.1409 26.7211 63.2316 26.4884C63.2619 26.4109 63.26 26.3377 63.224 26.2528C63.2589 26.5092 63.2632 26.5413 63.2414 26.381C63.1301 25.9229 63.1868 26.3395 63.2626 26.2965C63.0922 26.1239 63.0718 26.094 63.2106 26.2138C63.354 26.3086 63.3198 26.2969 63.1239 26.1767C63.1923 26.2 63.2539 26.2325 63.3223 26.2558C63.078 26.1993 63.0849 26.1901 63.3522 26.2354C63.1993 26.1909 62.7611 26.3893 63.2015 26.2069C62.8825 27.4009 62.5614 28.5789 62.2424 29.7729C61.3524 28.4497 60.4623 27.1265 59.5723 25.8032C58.8748 24.7557 58.9666 23.3315 60.0101 22.5448C60.9506 21.7803 62.5576 21.8961 63.2551 22.9437Z" fill="#F2CF74"/>
<path d="M28.3226 32.9125C29.4935 32.5818 30.5474 32.6506 31.5858 33.3253C32.2667 33.7712 32.8222 34.4953 33.0733 35.2608C33.8269 37.5003 32.3598 39.7319 30.025 40.0251C27.6604 40.3388 25.626 38.4613 25.7216 36.1063C25.7982 34.2108 27.3992 32.4833 29.2918 32.2992C30.5001 32.1837 31.796 33.011 31.9133 34.2926C32.0218 35.51 31.2174 36.7946 29.9199 36.914C29.5011 36.9547 30.4337 36.6728 29.9588 36.9006C29.7982 36.9796 29.8809 36.9275 30.216 36.7513C30.0251 36.9079 30.0736 36.8442 30.3773 36.558C30.3336 36.5966 30.2921 36.6512 30.2575 36.6967C30.1468 36.8424 30.1999 36.7535 30.3989 36.4164C30.3595 36.487 30.3293 36.5645 30.299 36.6421C30.3319 36.5234 30.3577 36.4138 30.3814 36.2882C30.3672 36.3636 30.3552 36.455 30.35 36.5373C30.3297 36.1483 30.3349 36.066 30.3676 36.3064C30.3363 36.1964 30.3119 36.0773 30.2806 35.9673C30.0655 35.6457 30.0316 35.5769 30.1813 35.7768C29.9017 35.5211 29.8266 35.4497 29.9814 35.5674C30.1339 35.669 30.0473 35.6319 29.7262 35.4308C29.9497 35.5146 29.8904 35.4982 29.5251 35.3928C29.7149 35.4078 29.708 35.4169 29.4953 35.4132C28.9293 35.5718 30.2838 35.1509 29.2731 35.4598C29.3121 35.4463 29.358 35.4237 29.397 35.4103C29.1632 35.491 28.9792 35.6385 28.8429 35.8366C28.9606 35.6818 28.9468 35.7 28.8265 35.8959C28.7089 36.0507 28.6505 36.2218 28.6377 36.4276C28.6622 36.1876 28.6662 36.2768 28.6566 36.6861C28.6257 36.519 28.637 36.5419 28.6905 36.7549C28.76 36.9658 28.7552 36.991 28.6923 36.8282C28.9118 37.1818 28.9547 37.2576 28.8211 37.0554C28.5579 36.7403 29.2945 37.4153 28.9508 37.1684C28.607 36.9214 29.4777 37.3822 29.1011 37.254C29.5123 37.3367 29.6058 37.3648 29.3637 37.3243C29.6127 37.3557 29.8531 37.323 30.0917 37.2171C29.4868 37.3892 28.9419 37.4633 28.3306 37.2283C27.7946 37.0074 27.2445 36.5029 27.0469 35.9504C26.6651 34.8844 27.0668 33.2793 28.3226 32.9125Z" fill="#F2CF74"/>
<path d="M73.6666 28.333C75.189 27.4077 76.9516 27.1678 78.6138 27.929C80.2418 28.6785 81.4239 30.1089 81.6682 31.9035C81.8361 33.1374 80.9268 34.3709 79.6748 34.525C77.7155 34.759 75.4537 34.3896 74.6786 32.2918C73.9843 30.4278 75.0844 28.0176 77.21 27.867C78.4617 27.7701 79.6549 28.5625 79.8315 29.8604C79.9929 31.0462 79.0989 32.3919 77.8381 32.4819C78.7318 32.2134 79.1493 31.6833 79.0996 30.8985C79.0152 30.5183 78.8114 30.2196 78.4811 30.0116C78.468 29.9154 78.9185 29.9276 79.0398 29.9193C78.3753 30.7931 77.7108 31.6669 77.0464 32.5407C76.994 32.1562 77.1491 32.5757 77.022 32.4216C76.9725 32.2978 76.9725 32.2978 77.0289 32.4125C77.1014 32.5251 77.0853 32.5273 77.0129 32.4147C76.9041 32.2745 76.9405 32.3022 77.1109 32.4748C77.0562 32.4333 77.0086 32.3827 76.9539 32.3411C76.8993 32.2996 76.8447 32.2581 76.7901 32.2165C77.0089 32.3255 77.0362 32.3462 76.8789 32.2697C76.8425 32.242 76.4456 32.0839 76.6852 32.1655C76.95 32.2519 76.4361 32.1342 76.3699 32.1269C76.6761 32.1586 76.4413 32.0518 76.356 32.145C76.5669 32.0755 76.5899 32.0643 76.434 32.1181C76.2803 32.188 76.301 32.1607 76.4984 32.0523C75.4283 32.7038 74.054 32.6787 73.24 31.6144C72.5257 30.6834 72.5895 28.9937 73.6666 28.333Z" fill="#F2CF74"/>
<path d="M57.4613 51.3055C57.6134 51.8234 57.0855 51.0629 57.5199 51.4363C57.7791 51.6621 58.0314 51.8971 58.2768 52.1412C58.8924 52.7673 59.3471 53.5296 59.4441 54.4222C59.6184 56.0632 58.511 57.5196 57.0025 58.0676C55.3861 58.663 53.6783 58.2263 52.5133 56.9812C51.4528 55.8444 51.0789 54.2958 50.9471 52.7878C50.8425 51.6596 51.4082 50.84 52.3654 50.3181C53.2996 49.8074 54.3787 49.5218 55.4381 49.4511C56.7261 49.3818 57.8305 50.121 58.0595 51.4445C58.4402 53.702 56.8833 55.6929 54.7055 56.1198C53.4734 56.3609 52.2545 55.3191 52.084 54.1264C51.9052 52.8125 52.8384 51.7552 54.0774 51.5049C53.8552 51.5515 53.6465 51.637 53.5445 51.8468C53.4611 52.0132 53.5308 52.5259 53.4516 52.0634C54.3254 52.7279 55.1992 53.3924 56.0731 54.0568C55.2471 54.104 54.8942 54.2091 54.1483 54.6044C54.6158 53.7818 55.0923 52.9663 55.5666 52.1346C55.6262 52.812 55.6384 53.3816 55.9304 53.8478C55.8514 53.6871 55.8878 53.7148 56.0418 53.9469C55.9945 53.8391 55.9034 53.7698 55.7825 53.721C55.6595 53.6561 55.5339 53.6324 55.3988 53.659C55.6621 53.615 55.6621 53.615 55.4079 53.6659C54.8833 54.129 54.8148 54.4647 54.8809 55.1902C54.903 55.2932 54.9642 55.3828 55.053 55.436C54.9325 55.33 54.812 55.224 54.6915 55.118C54.0322 54.5304 53.4027 53.9225 53.1454 53.0517C52.7783 51.8531 53.169 50.5269 54.4121 50.0069C55.4988 49.5978 57.092 50.091 57.4613 51.3055Z" fill="#F2CF74"/>
<path d="M36.5322 44.7856C38.5536 45.1878 40.3849 46.6522 40.6841 48.7903C40.9923 50.9354 39.5908 52.9295 37.5288 53.4876C35.3797 54.0657 33.1517 52.745 32.8373 50.4947C32.5487 48.4939 33.8876 46.2798 36.018 46.1041C37.2285 46.0046 38.52 46.7999 38.6395 48.0975C38.7459 49.2989 37.9458 50.6155 36.6461 50.719C36.4447 50.7382 36.4446 50.7383 36.6508 50.6939C36.811 50.6721 36.9648 50.6022 37.089 50.4955C37.1673 50.4114 37.2547 50.3342 37.333 50.2501C37.2244 50.4118 37.2153 50.4049 37.3377 50.225C37.4419 50.0313 37.451 50.0382 37.3698 50.2206C37.3978 50.1271 37.4328 50.0244 37.4518 49.9239C37.3483 50.3623 37.3907 49.4752 37.4609 49.9308C37.4238 49.6584 37.3132 49.4449 37.1086 49.2606C36.9881 49.1546 36.4885 48.9615 36.8537 49.0668C36.7692 49.0457 36.0627 49.0113 36.4586 48.9819C36.3716 49.0019 36.2776 49.031 36.1997 49.0579C36.3923 48.9746 36.4083 48.9724 36.2339 49.0696C35.897 49.1725 36.3872 49.0569 36.3789 48.9356C36.3144 49.0015 36.2339 49.0696 36.1694 49.1355C36.2918 48.9556 36.3009 48.9625 36.1924 49.1242C36.102 49.2997 36.0929 49.2928 36.172 49.0943C36.1508 49.1788 36.1228 49.2724 36.0925 49.35C36.1114 49.6085 36.111 49.6657 36.087 49.4894C36.0561 49.3222 36.0787 49.3681 36.1387 49.6293C35.9239 49.2505 36.2584 49.8496 36.1503 49.5951C36.0353 49.3496 35.9141 49.3579 36.162 49.5608C35.9709 49.4155 35.665 49.3266 36.0917 49.4643C35.9639 49.4246 35.448 49.2908 35.9756 49.3903C34.7856 49.1606 33.7269 48.097 33.9413 46.7948C34.1274 45.6433 35.2486 44.5278 36.5322 44.7856Z" fill="#F2CF74"/>
<path d="M11.0991 44.2653C13.1646 44.5718 15.3821 45.7551 15.7377 48.0079C16.1194 50.453 13.9062 52.419 11.5316 52.1791C9.15689 51.9392 7.77332 49.5081 8.65918 47.3229C9.41239 45.4823 11.7277 44.3266 13.5927 45.1989C14.6917 45.7185 15.4262 47.0385 14.8854 48.2219C14.3888 49.3095 13.0321 50.0735 11.8625 49.5146C11.6892 49.4403 11.7053 49.4381 11.9175 49.4989C12.0887 49.5572 12.2533 49.5675 12.4365 49.5344C12.0038 49.5933 12.9318 49.3364 12.5235 49.5144C12.6222 49.4601 12.7209 49.4059 12.8265 49.3426C12.6357 49.4991 12.6841 49.4354 12.965 49.1605C12.8936 49.2355 12.6855 49.5658 12.8892 49.2035C12.9493 49.1056 12.9981 48.9847 13.008 48.8773C12.9981 48.9847 12.9768 48.4082 12.916 48.2614C12.7945 47.9679 12.5378 47.7008 12.2367 47.5868C11.91 47.5251 11.8416 47.5018 12.0084 47.5281C12.1821 47.5453 12.1089 47.5471 11.7888 47.5335C12.2189 47.5158 11.3805 47.7115 11.8026 47.5153C11.7108 47.5605 11.6281 47.6125 11.5363 47.6576C11.3036 47.926 11.246 47.9827 11.3568 47.8371C11.4675 47.6915 11.4282 47.7621 11.2158 48.0603C11.1822 48.2933 11.1578 48.5334 11.1242 48.7664C11.0893 48.51 11.0937 48.5421 11.1624 48.8673C11.2145 48.95 11.2574 49.0257 11.3026 49.1175C11.0922 48.7707 11.6376 49.3004 11.2662 49.0898C10.7626 48.8074 11.7523 49.244 11.1864 49.0435C11.0062 48.9783 10.8419 48.9109 10.6548 48.8548C11.0291 48.967 10.7414 48.892 10.5244 48.8562C9.32487 48.6767 8.28733 47.5286 8.49013 46.2606C8.71295 45.0797 9.81733 44.0807 11.0991 44.2653Z" fill="#F2CF74"/>
<path d="M4.71297 34.64C5.46268 35.0521 6.14575 35.514 6.63718 36.2469C7.28696 37.2438 7.69523 38.4449 7.06347 39.5591C6.50349 40.5411 5.44146 41.012 4.33079 40.8858C2.89565 40.7139 1.93242 39.3924 2.06753 37.9868C2.17163 36.773 3.44537 35.7592 4.66309 35.9525C5.94017 36.1622 6.80661 37.252 6.69739 38.5481C6.69265 38.5732 6.69484 38.5892 6.6901 38.6143C6.68687 38.4108 6.68581 38.2232 6.68259 38.0197C6.68477 38.0357 6.69607 38.0586 6.69132 38.0837C6.64003 37.8867 6.59092 37.7057 6.53962 37.5087C6.55091 37.5316 6.55999 37.5386 6.57128 37.5615C6.47409 37.387 6.37692 37.2126 6.27063 37.0312C6.28884 37.045 6.29101 37.0611 6.30921 37.0749C6.15922 36.9321 6.01614 36.7802 5.86614 36.6374C5.88435 36.6513 5.90255 36.6651 5.91165 36.672C5.73397 36.5656 5.54936 36.4684 5.37167 36.362C5.40808 36.3897 5.44229 36.4014 5.49254 36.4108C5.29845 36.3638 5.10439 36.3167 4.9012 36.2628C4.95145 36.2723 4.9926 36.2748 5.03375 36.2774C4.83018 36.2806 4.64263 36.2817 4.43906 36.2849C4.48021 36.2875 4.52825 36.281 4.56722 36.2675C4.3702 36.3188 4.18921 36.3679 3.99218 36.4192C4.01513 36.4079 4.03114 36.4057 4.05409 36.3944C3.87963 36.4916 3.70518 36.5888 3.52379 36.6951C3.56276 36.6816 3.59261 36.6613 3.6203 36.6249C3.4775 36.7749 3.32563 36.9179 3.18283 37.0679C3.19668 37.0497 3.20359 37.0406 3.20833 37.0155C3.10195 37.1932 3.00468 37.3778 2.8983 37.5554C2.90304 37.5303 2.90995 37.5212 2.91469 37.4961C2.86767 37.6902 2.82064 37.8843 2.76669 38.0875C2.77143 38.0623 2.76924 38.0463 2.76488 38.0143C2.81722 38.3988 2.87175 38.7994 2.92409 39.184C2.86588 38.9961 2.79382 38.8264 2.69663 38.6519C2.79382 38.8264 2.89099 39.0008 2.99728 39.1822C2.87971 38.9779 2.74139 38.8008 2.57101 38.6282C2.72101 38.771 2.86408 38.9229 3.01408 39.0657C2.87318 38.9298 2.71844 38.8121 2.54986 38.7127C2.72754 38.819 2.91216 38.9163 3.08984 39.0227C3.05561 39.011 3.01919 38.9834 2.98496 38.9717C2.41986 38.6569 1.95783 38.3199 1.70126 37.6939C1.492 37.1756 1.45102 36.4549 1.69005 35.9328C1.94074 35.3764 2.37642 34.8601 2.96788 34.6491C3.48833 34.4558 4.2003 34.3508 4.71297 34.64Z" fill="#F2CF74"/>
<path d="M86.2023 45.8515C85.916 43.1486 88.404 40.4435 91.2177 41.0316C94.2416 41.6646 95.6601 45.3722 93.8048 47.8688C91.9425 50.3745 87.828 49.7023 86.5399 47.0133C85.2835 44.3771 87.4937 41.1304 90.3608 41.2706C94.0166 41.4504 94.8768 46.9313 91.5559 48.3136C90.4276 48.7772 88.9424 48.2368 88.5111 47.0469C88.0799 45.8571 88.5737 44.5087 89.7778 44.0021C89.5301 44.1011 89.3159 44.3261 89.1931 44.5631C89.1538 44.6338 89.0226 45.1086 89.0328 44.944C89.0689 44.6698 89.068 45.5023 89.0095 45.0125C89.0378 45.2208 89.1168 45.3814 89.2369 45.5446C89.0466 45.2849 89.2916 45.5861 89.3826 45.6553C89.5919 45.8145 89.8475 45.894 90.1083 45.8911C90.1815 45.8893 90.6397 45.778 90.4769 45.8409C90.1902 45.9534 90.9838 45.6088 90.8954 45.4984C90.8954 45.4984 90.6994 45.7373 90.7085 45.7442C90.7616 45.6553 90.8149 45.5665 90.868 45.4776C90.7959 45.667 90.789 45.6761 90.8451 45.4889C91.1059 45.127 90.6309 45.7139 90.8528 45.3655C90.8426 45.171 90.8517 45.1779 90.871 45.3793C90.8419 45.2853 90.8219 45.1983 90.7928 45.1043C90.7411 44.9645 90.5733 44.7507 90.7476 45.0126C90.6817 44.9481 90.6159 44.8836 90.55 44.8191C90.7298 44.9415 90.732 44.9576 90.5703 44.849C90.137 44.6631 90.9013 44.9427 90.4837 44.8118C90.1847 44.7138 90.8682 44.7595 90.2892 44.822C90.3213 44.8176 90.6326 44.7671 90.6348 44.7831C90.5827 44.7005 90.2174 44.9542 90.1715 44.9767C90.6148 44.6961 89.9777 45.2316 90.1668 45.0018C90.3143 44.8267 90.0622 45.2527 90.0345 45.2891C89.9944 45.4741 89.9923 45.4581 90.028 45.2411C90.032 45.3303 90.0338 45.4035 90.0377 45.4927C89.9154 45.3135 90.0021 45.3507 90.0876 45.5593C90.0472 45.4424 89.8365 45.1529 90.0181 45.3485C90.277 45.6315 89.7057 45.2115 90.0702 45.4312C90.2111 45.5671 90.1951 45.5692 90.029 45.4286C90.1088 45.4749 90.1816 45.5303 90.2704 45.5835C90.4255 45.644 90.636 45.6316 90.3662 45.6275C90.4554 45.6236 91.037 45.5199 90.817 45.5825C90.675 45.6181 90.5275 45.7933 90.7071 45.6138C90.8425 45.5301 90.8586 45.5279 90.762 45.5982C90.6218 45.707 90.6725 45.6593 90.8958 45.4412C90.8797 45.4434 90.6928 45.6892 90.695 45.7052C90.6703 45.6433 90.9631 45.277 90.7872 45.6029C90.8532 45.3083 90.8696 45.2489 90.8524 45.4226C90.8353 45.5963 90.8426 45.53 90.8605 45.242C90.9851 46.4572 90.1486 47.7462 88.8671 47.8635C87.6063 47.9535 86.3447 47.1378 86.2023 45.8515Z" fill="#F2CF74"/>
<path d="M39.6171 60.0176C41.8999 59.2826 44.2079 59.5723 46.1908 60.9509C46.9648 61.482 47.3975 62.8022 46.9435 63.6637C46.142 65.209 45.1229 66.7758 43.4057 67.4094C41.7595 68.0251 39.8591 67.6717 38.6256 66.4034C37.299 65.0498 37.2445 62.911 38.3957 61.4161C39.4222 60.0849 41.1117 59.4878 42.6807 59.1437C43.9174 58.8775 45.1408 59.9514 45.3021 61.1371C45.4831 62.4671 44.5455 63.4923 43.3088 63.7586C43.1828 63.792 42.9926 63.8343 43.2286 63.7695C43.0407 63.8277 42.8619 63.8928 42.6831 63.958C42.5363 64.0188 42.3964 64.0704 42.2518 64.1472C41.9237 64.3143 42.4726 63.9703 42.1921 64.188C41.8887 64.417 42.0555 64.4432 42.1003 64.2331C42.0588 64.2877 42.0242 64.3332 41.9827 64.3879C42.0311 64.3241 42.0704 64.2535 42.1189 64.1898C42.1845 63.9524 42.2232 63.637 42.1104 63.4076C42.0652 63.3158 41.6491 62.9562 41.8654 63.1063C42.1454 63.3049 41.5537 62.855 41.8199 63.0717C41.9408 63.1205 41.9408 63.1205 41.8129 63.0808C41.6782 63.0502 41.6851 63.0411 41.8108 63.0648C41.9433 63.0794 41.9433 63.0794 41.8108 63.0648C41.6483 63.0706 41.6782 63.0502 41.9116 63.0266C41.8042 63.0168 41.7124 63.0619 41.6319 63.1299C41.7652 63.0302 41.9077 62.9374 42.0228 62.8238C41.8341 62.9964 42.0483 62.7714 42.0967 62.7076C42.3623 62.3206 42.4916 62.1316 42.6027 61.9288C42.8483 62.8338 43.103 63.7458 43.3555 64.6417C43.1574 64.5054 42.7813 64.32 42.4226 64.2627C42.3221 64.2437 41.6291 64.2483 41.9517 64.2207C41.8465 64.2269 41.0791 64.4048 41.368 64.3083C40.1716 64.6915 38.8341 64.2778 38.3231 63.0417C37.9003 61.9731 38.4138 60.4099 39.6171 60.0176Z" fill="#F2CF74"/>
<path d="M81.1795 12.4824C82.3873 11.7631 83.6535 11.5337 85.0066 12.0024C86.1293 12.3963 87.1021 13.3084 87.5155 14.4273C87.8929 15.4612 87.5798 16.4586 86.7792 17.1714C85.4955 18.2927 83.6714 18.5002 82.1038 17.9546C80.7164 17.4743 80.1714 15.5084 81.112 14.3848C81.9903 13.3432 83.2643 12.6312 84.6513 13.1687C85.9971 13.7036 86.8077 15.2825 86.213 16.6691C85.5626 18.1857 83.6819 18.6375 82.3617 17.691C80.9777 16.6961 81.0478 14.7526 82.299 13.6928C83.2282 12.9054 84.8665 13.1312 85.5574 14.1307C86.3073 15.2037 86.1154 16.5518 85.1196 17.3891C85.1057 17.4073 85.0828 17.4186 85.0689 17.4368C85.3652 16.9151 85.6683 16.3842 85.9645 15.8624C85.9597 15.8875 85.9528 15.8966 85.9481 15.9217C85.8958 15.5372 85.8412 15.1366 85.7889 14.752C85.2609 14.3506 84.733 13.9491 84.1981 13.5568C83.8136 13.6091 83.413 13.6636 83.0284 13.716C83.0514 13.7047 83.0765 13.7094 83.0994 13.6982C82.7822 13.9453 82.4558 14.1856 82.1316 14.4419C82.0598 14.5741 81.9859 14.6902 81.9142 14.8224C81.8613 15.2131 81.8174 15.6108 81.7645 16.0015C82.2779 16.5355 82.8003 17.0764 83.3136 17.6104C83.6982 17.5581 84.0988 17.5036 84.4834 17.4513C84.2266 17.5433 84.2681 17.4887 84.6149 17.2783C84.9369 17.006 84.9897 16.9743 84.7984 17.1881C84.4655 16.0012 84.1396 14.8051 83.8067 13.6182C84.2859 13.7815 83.3471 13.5991 83.8456 13.6047C83.5459 13.621 83.4796 13.6138 83.649 13.5989C83.7291 13.588 83.8092 13.5771 83.8893 13.5662C83.8023 13.5862 83.7083 13.6153 83.6213 13.6353C83.7222 13.5971 83.8231 13.5589 83.9148 13.5137C83.8322 13.5658 83.7473 13.6018 83.6646 13.6539C83.7542 13.5927 83.8347 13.5247 83.9152 13.4566C83.6644 14.372 83.4206 15.2784 83.1789 16.2007C83.0621 15.8821 83.2375 16.3315 83.3151 16.3617C83.3242 16.3686 82.9361 15.9155 83.279 16.2769C83.5539 16.5577 83.3267 16.3275 83.247 16.2812C82.9917 16.1446 83.803 16.5891 83.3813 16.369C83.0827 16.2138 83.5157 16.4568 83.5823 16.407C83.5754 16.4161 83.3263 16.3847 83.3172 16.3777C83.4316 16.3785 83.5299 16.3815 83.6442 16.3822C83.4611 16.4153 83.468 16.4062 83.665 16.3549C83.8369 16.2988 83.8759 16.2854 83.7681 16.3327C83.6053 16.3956 83.681 16.3527 83.9932 16.1878C82.9508 16.803 81.4981 16.862 80.7347 15.75C80.0846 14.8102 80.0635 13.1566 81.1795 12.4824Z" fill="#F2CF74"/>
<path d="M94.7829 26.9348C96.578 24.8952 99.9092 24.7274 101.602 27.0349C103.187 29.2021 102.174 32.5551 99.6749 33.499C97.1367 34.4565 93.9938 32.4688 94.2939 29.6371C94.5743 27.0203 97.968 25.3343 100.072 27.1208C101.002 27.9 101.351 29.3866 100.517 30.3897C99.7373 31.3199 98.2507 31.6691 97.2477 30.8345C97.0201 30.6615 97.1046 30.6827 97.4989 30.882C97.7061 31.0251 97.9322 31.0678 98.1704 31.0191C98.4822 30.9113 98.5532 30.8935 98.3904 30.9564C98.2276 31.0194 98.2964 30.9856 98.5787 30.8411C98.2618 31.0311 98.6847 30.7206 98.7703 30.5702C98.8953 30.3492 98.9496 30.0888 98.8987 29.8346C98.8482 29.5232 98.6938 29.3484 98.487 29.148C98.9166 29.5465 98.096 28.7932 98.5395 29.1735C98.455 29.1524 98.3705 29.1312 98.2929 29.101C98.5078 29.1207 98.5238 29.1185 98.3432 29.1105C98.2176 29.0868 98.0915 29.1203 97.9768 29.1767C97.7448 29.3307 97.7011 29.3693 97.8413 29.2604C98.0668 29.0584 97.5189 29.5899 97.8322 29.2535C97.6956 29.5087 97.654 29.5633 97.7215 29.3991C97.782 29.244 97.7725 29.2942 97.693 29.5499C97.7121 29.0903 97.8463 29.8962 97.7007 29.4264C97.7298 29.5203 97.9944 29.9658 97.8401 29.791C97.6835 29.6001 98.0997 29.9597 98.1794 30.0059C97.6464 29.6868 98.592 30.2191 98.0356 29.9684C98.2872 29.9586 98.3215 29.9703 98.1521 29.9852C97.985 30.0161 98.0239 30.0026 98.269 29.9448C97.9023 30.0682 98.3517 29.8927 98.4785 29.7449C97.672 30.6544 96.2309 31.0382 95.2096 30.1898C94.3067 29.4314 93.9119 27.9102 94.7829 26.9348Z" fill="#F2CF74"/>
<path d="M61.5589 66.6035C63.5063 67.1218 65.4036 68.6507 65.7122 70.7386C66.0059 72.6571 64.8925 74.6692 63.0696 75.3661C60.9442 76.1776 58.749 74.7382 58.4892 72.5295C58.249 70.4649 59.892 68.2665 62.1169 68.6655C63.3208 68.8771 64.3588 69.968 64.1512 71.2611C63.9535 72.4468 62.8418 73.5121 61.5556 73.2954C61.2905 73.2662 61.3845 73.2371 61.8397 73.2241C62.1186 73.2351 62.3616 73.1612 62.5914 72.9912C62.6857 72.9049 62.787 72.8095 62.8814 72.7232C63.0621 72.3722 63.1222 72.2743 63.0569 72.4546C62.9524 72.7055 63.1474 71.92 63.1196 72.3155C63.1037 71.9586 63.1088 71.8763 63.1328 72.0525C63.1568 72.2288 63.1368 72.1418 63.0568 71.7936C62.8475 71.2753 62.2234 70.8869 61.6648 70.9793C61.353 71.087 61.2729 71.0979 61.4357 71.035C61.5894 70.9651 61.5296 71.0059 61.2313 71.1526C61.585 70.9331 61.0007 71.4369 61.1669 71.2185C61.333 71 60.9552 71.7613 61.1276 71.2891C61.2766 70.8852 61.075 71.6227 61.118 71.3393C61.152 71.0491 61.0852 71.8171 61.1086 71.3896C61.1755 71.6416 61.182 71.6897 61.1191 71.5269C61.0492 71.3732 61.0605 71.3961 61.1621 71.6026C60.8417 71.2872 61.3514 71.6748 61.11 71.52C60.9665 71.4253 60.8278 71.3054 60.6843 71.2107C61.1104 71.4628 60.5154 71.1684 60.4539 71.1359C60.2554 71.0569 60.0522 71.0029 59.8399 70.942C58.655 70.63 58.0691 68.9634 58.5472 67.9191C59.1069 66.6352 60.2895 66.2703 61.5589 66.6035Z" fill="#F2CF74"/>
<path d="M66.1237 44.5044C68.6673 42.3874 72.9651 44.0466 73.4351 47.3202C73.9142 50.6008 70.0227 53.5459 67.0143 51.9478C66.0913 51.4614 65.436 50.604 65.5714 49.5003C65.8612 47.1922 67.3956 45.1555 69.5874 44.3513C70.7681 43.9131 72.1347 44.4208 72.6322 45.6179C73.0958 46.7462 72.5532 48.2155 71.3656 48.6627C70.5883 48.948 70.2772 49.3005 70.1944 50.0707C69.7081 49.2555 69.2308 48.4473 68.7515 47.6231C68.7697 47.6369 69.0843 47.79 69.0912 47.7809C69.1283 47.6942 68.4375 47.7147 68.7234 47.7166C69.0504 47.7211 68.3683 47.8058 68.6866 47.7462C68.7507 47.7374 69.0927 47.5522 68.8425 47.6923C68.5624 47.8528 68.9875 47.5583 69.0381 47.5106C68.9001 47.6355 68.7554 47.7123 68.9671 47.5285C68.8359 47.6442 68.8253 47.866 68.9004 47.5783C68.8793 47.6628 68.8438 48.1817 68.8271 47.9392C68.8057 47.7218 68.9014 48.125 68.9192 48.196C68.9912 48.3657 68.7866 48.1814 68.976 48.2535C69.2338 48.349 68.8893 48.2163 68.787 48.1242C68.9145 48.2211 69.1034 48.3504 68.8529 48.1886C68.6206 48.0407 68.7269 48.2221 68.9123 48.2051C68.5827 48.2418 68.8984 48.2232 68.9742 48.1803C68.5058 48.4562 69.2339 47.9899 68.956 48.1664C68.6781 48.343 69.3996 47.8286 68.9603 48.1985C67.9922 48.9994 66.4365 48.7215 65.7019 47.7606C64.8923 46.7284 65.1486 45.3144 66.1237 44.5044Z" fill="#F2CF74"/>
<path d="M105.641 10.4831C108.534 12.309 109.611 16.1447 108.405 19.2791C107.882 20.6479 105.993 21.2231 104.835 20.2709C102.508 18.3435 101.66 15.2846 102.701 12.4419C102.973 11.6867 103.748 11.0834 104.545 10.9995C106.131 10.8408 107.73 11.4392 108.626 12.8105C109.308 13.8602 109.255 15.271 108.189 16.0689C107.019 16.9463 105.642 17.3214 104.181 17.1447C101.208 16.7659 101.77 12.1361 104.743 12.5148C105.083 12.5583 105.085 12.5743 105.359 12.3657C105.212 13.4465 105.068 14.5433 104.921 15.6241C104.6 15.1211 104.866 15.6398 105.17 15.5984C105.782 15.1153 106.403 14.6391 107.014 14.156C106.693 15.0321 106.979 15.9969 107.65 16.5502C106.463 16.8831 105.267 17.2091 104.08 17.542C104.592 16.2075 103.958 14.9065 102.824 14.1877C101.754 13.5174 101.659 11.8655 102.379 10.9188C103.196 9.84475 104.578 9.80362 105.641 10.4831Z" fill="#F2CF74"/>
<path d="M83.8486 60.0362C86.6288 60.8574 87.7501 64.8992 85.7532 67.0152C85.0323 67.7743 84.0577 68.1681 83.0403 67.768C79.8673 66.5188 78.8912 62.6449 80.6523 59.8755C81.385 58.7231 82.9028 58.843 83.9212 59.4306C86.1834 60.763 87.0431 63.9019 86.0006 66.2553C85.383 67.6531 83.6735 68.1633 82.4308 67.2471C80.0183 65.47 79.6263 62.1695 81.2114 59.726C81.8723 58.7057 83.5613 58.5248 84.4803 59.2811C85.5106 60.1364 85.6323 61.45 84.9252 62.5499C85.0454 62.3541 85.0272 62.3402 84.9342 62.5569C84.8552 62.7553 84.8916 62.783 84.9113 62.5682C84.8898 62.7098 84.8752 62.8424 84.8697 62.9818C84.8741 62.6548 84.8973 62.9454 84.9122 63.1148C84.965 63.4422 84.7929 62.8373 84.9235 63.1377C84.9461 63.1836 85.1426 63.5486 85 63.3395C84.8642 63.1213 85.1226 63.4615 85.1452 63.5074C85.3265 63.7602 84.7698 63.2076 85.241 63.5515C84.0541 63.8844 82.858 64.2104 81.6711 64.5433C81.7269 64.4133 81.7757 64.2924 81.8224 64.1555C81.6915 64.5731 81.7882 64.1438 81.798 64.0364C81.8185 63.7072 81.8464 64.3317 81.7868 64.0134C81.7624 63.8943 81.6208 63.5138 81.7693 63.8853C81.7198 63.7614 81.6612 63.6307 81.6117 63.5069C81.7132 63.7134 81.7158 63.6722 81.5866 63.5021C81.3281 63.1619 81.7395 63.5466 81.5276 63.4285C81.3863 63.3499 81.2476 63.23 81.0972 63.1444C82.1869 62.9961 83.2765 62.8478 84.3661 62.6995C84.6342 62.2713 84.4124 62.6197 84.3818 62.7545C84.3304 62.9165 84.3329 62.8754 84.4146 62.6358C84.4073 62.702 84.3999 62.7683 84.3905 62.8186C84.4848 62.7323 84.3516 62.473 84.4083 62.8896C84.4254 63.075 84.5863 63.2978 84.4192 62.9697C84.4826 63.0753 84.5251 63.2083 84.5655 63.3252C84.3832 62.8849 84.5109 63.2837 84.6361 63.3645C84.8684 63.5124 84.3292 63.0881 84.6725 63.3922C85.025 63.7033 84.319 63.2526 84.8026 63.4479C83.8975 63.6935 82.9856 63.9482 82.0897 64.2007C82.4605 63.8075 82.2259 64.0026 82.1388 64.3817C82.1611 64.1257 82.1793 64.1395 82.1774 64.4254C82.169 64.3041 82.1516 64.176 82.1272 64.0569C82.2054 64.3319 82.1916 64.35 82.1017 64.1093C82.251 64.3664 82.2531 64.3825 82.0944 64.1756C82.3693 64.4564 82.6959 64.5181 82.1686 64.3613C80.9954 64.0151 80.384 62.4009 80.8759 61.3384C81.3919 60.0931 82.6069 59.6666 83.8486 60.0362Z" fill="#F2CF74"/>
<path d="M117.814 31.031C117.877 30.1166 118.242 29.2019 118.869 28.5291C119.553 27.7995 120.599 27.3307 121.582 27.7763C124.736 29.1832 124.933 34.232 121.526 35.5199C118.204 36.7718 115.116 32.9731 116.415 29.8667C117.14 28.1197 119.286 27.0933 121.064 27.8712C122.766 28.619 123.678 30.7062 123.051 32.4562C122.431 34.1971 120.49 35.2203 118.694 34.9751C116.756 34.7084 115.336 33.2124 114.648 31.4536C113.551 28.6653 117.853 26.8802 118.96 29.6755C118.996 29.7604 119.336 30.5219 119.401 30.3988C119.468 30.2918 118.941 30.4941 118.904 30.5236C118.632 30.7482 118.533 31.333 118.693 31.6703C118.853 32.0076 119.1 32.0229 119.463 32.1123C120.207 32.3047 120.313 32.1271 120.754 31.5857C120.792 31.3275 120.795 31.2863 120.778 31.46C120.758 31.6177 120.754 31.5857 120.778 31.3457C120.754 31.2838 120.729 31.2218 120.711 31.1508C120.806 31.3664 120.81 31.3985 120.724 31.247C120.631 31.1045 120.652 31.1344 120.783 31.3205C120.726 31.263 120.672 31.2214 120.615 31.1639C120.669 31.2054 120.715 31.24 120.77 31.2816C120.676 31.1963 120.572 31.1453 120.455 31.1285C120.174 31.1015 119.84 31.1062 119.605 31.3013C119.509 31.3715 119.44 31.4625 119.414 31.5722C119.346 31.7364 119.351 31.7113 119.451 31.4855C119.434 31.5449 119.427 31.6111 119.411 31.6705C119.435 31.4305 119.438 31.3894 119.444 31.5518C119.452 31.6731 119.443 31.6661 119.425 31.538C119.394 31.3708 119.406 31.3937 119.445 31.625C119.591 31.7929 119.656 31.9717 119.891 32.0785C120.796 31.8329 121.708 31.5782 122.604 31.3257C122.27 31.6895 122.495 31.0711 122.465 31.5649C122.374 32.8177 121.08 33.7445 119.869 33.5993C118.546 33.4693 117.726 32.2997 117.814 31.031Z" fill="#F2CF74"/>
<path d="M102.679 49.1586C105.244 48.94 107.741 50.7382 107.98 53.3905C108.217 55.9124 106.125 58.2291 103.633 58.3886C100.874 58.5602 98.5991 56.0544 98.8803 53.3233C99.0099 52.0571 99.6784 50.9134 100.722 50.1839C101.995 49.2844 103.454 49.2163 104.911 49.6056C106.123 49.9384 106.638 51.5656 106.203 52.6285C105.692 53.9059 104.393 54.2541 103.181 53.9213C103.443 53.9916 103.565 53.9261 103.265 53.9996C103.556 53.9192 103.536 53.775 103.363 54.0025C103.504 53.8365 103.526 53.8252 103.423 53.9618C103.312 54.1074 103.333 54.0801 103.476 53.8729C103.519 53.6468 103.53 53.6125 103.504 53.7793C103.494 53.9439 103.489 53.9119 103.5 53.6901C103.54 53.9213 103.544 53.9534 103.515 53.8023C103.477 53.6442 103.491 53.6832 103.569 53.901C103.445 53.7058 103.434 53.6828 103.533 53.8161C103.642 53.9563 103.606 53.9287 103.442 53.7469C103.64 53.8831 103.661 53.913 103.508 53.8114C103.426 53.7491 103.324 53.7141 103.218 53.7203C103.449 53.7378 103.477 53.7586 103.312 53.7483C103.15 53.7541 103.173 53.7428 103.399 53.7283C103.328 53.7461 103.264 53.7549 103.202 53.7796C103.441 53.6737 103.45 53.6806 103.199 53.8208C103.252 53.7891 103.303 53.7414 103.356 53.7097C103.56 53.535 103.554 53.5441 103.335 53.737C103.377 53.6824 103.411 53.6369 103.453 53.5823C103.309 53.8466 103.302 53.8558 103.407 53.6049C103.383 53.6734 103.369 53.7487 103.353 53.8081C103.375 53.5521 103.382 53.543 103.36 53.799C103.375 53.854 103.4 53.9158 103.409 53.9799C103.294 53.7345 103.31 53.7323 103.439 53.9596C103.398 53.8999 103.359 53.8562 103.319 53.7964C103.512 53.9578 103.532 53.9876 103.403 53.8747C103.328 53.8033 103.246 53.741 103.157 53.6878C103.369 53.8059 103.405 53.8335 103.248 53.757C103.093 53.6965 103.118 53.7013 103.339 53.7691C103.074 53.7399 103.074 53.7399 103.321 53.7552C102.072 53.8682 100.883 53.0507 100.7 51.7618C100.522 50.5782 101.421 49.2646 102.679 49.1586Z" fill="#F2CF74"/>
</svg>
