<svg width="63" height="47" viewBox="0 0 63 47" fill="none" xmlns="http://www.w3.org/2000/svg">
<path d="M14.2476 18.6563C13.5507 18.6563 12.882 18.7625 12.2163 18.8594C12.432 18.1344 12.6538 17.3969 13.0101 16.7344C13.3663 15.7719 13.9226 14.9375 14.4757 14.0969C14.9382 13.1875 15.7538 12.5719 16.3538 11.7937C16.982 11.0375 17.8382 10.5344 18.5163 9.90625C19.182 9.25 20.0538 8.92187 20.7476 8.45937C21.4726 8.04375 22.1038 7.58438 22.7788 7.36563L24.4632 6.67187L25.9445 6.05625L24.4288 0L22.5632 0.449999C21.9663 0.599999 21.2382 0.774999 20.4101 0.984374C19.5632 1.14062 18.6601 1.56875 17.6538 1.95937C16.6601 2.40312 15.5101 2.70313 14.4413 3.41563C13.3663 4.09688 12.1257 4.66562 11.032 5.57812C9.97259 6.51875 8.69446 7.33438 7.75071 8.53125C6.71946 9.65 5.70071 10.825 4.91009 12.1625C3.99446 13.4375 3.37259 14.8375 2.71634 16.2219C2.12259 17.6062 1.64446 19.0219 1.25384 20.3969C0.51321 23.1531 0.18196 25.7719 0.0538352 28.0125C-0.0524148 30.2563 0.0100852 32.1219 0.141335 33.4719C0.18821 34.1094 0.27571 34.7281 0.33821 35.1563L0.416335 35.6813L0.497585 35.6625C1.0534 38.2588 2.33291 40.6448 4.1881 42.5443C6.04328 44.4438 8.39834 45.7794 10.9808 46.3963C13.5633 47.0133 16.2677 46.8866 18.7812 46.0307C21.2947 45.1749 23.5145 43.625 25.1839 41.5603C26.8532 39.4955 27.904 37.0004 28.2145 34.3634C28.525 31.7265 28.0827 29.0555 26.9386 26.6594C25.7946 24.2634 23.9955 22.2402 21.7496 20.8239C19.5037 19.4076 16.9028 18.6561 14.2476 18.6563V18.6563ZM48.6226 18.6563C47.9257 18.6563 47.257 18.7625 46.5913 18.8594C46.807 18.1344 47.0288 17.3969 47.3851 16.7344C47.7413 15.7719 48.2976 14.9375 48.8507 14.0969C49.3132 13.1875 50.1288 12.5719 50.7288 11.7937C51.357 11.0375 52.2132 10.5344 52.8913 9.90625C53.557 9.25 54.4288 8.92187 55.1226 8.45937C55.8476 8.04375 56.4788 7.58438 57.1538 7.36563L58.8382 6.67187L60.3195 6.05625L58.8038 0L56.9382 0.449999C56.3413 0.599999 55.6132 0.774999 54.7851 0.984374C53.9382 1.14062 53.0351 1.56875 52.0288 1.95937C51.0382 2.40625 49.8851 2.70312 48.8163 3.41875C47.7413 4.1 46.5007 4.66875 45.407 5.58125C44.3476 6.52187 43.0695 7.3375 42.1257 8.53125C41.0945 9.65 40.0757 10.825 39.2851 12.1625C38.3695 13.4375 37.7476 14.8375 37.0913 16.2219C36.4976 17.6062 36.0195 19.0219 35.6288 20.3969C34.8882 23.1531 34.557 25.7719 34.4288 28.0125C34.3226 30.2563 34.3851 32.1219 34.5163 33.4719C34.5632 34.1094 34.6507 34.7281 34.7132 35.1563L34.7913 35.6813L34.8726 35.6625C35.4284 38.2588 36.7079 40.6448 38.5631 42.5443C40.4183 44.4438 42.7733 45.7794 45.3558 46.3963C47.9383 47.0133 50.6427 46.8866 53.1562 46.0307C55.6697 45.1749 57.8895 43.625 59.5589 41.5603C61.2282 39.4955 62.279 37.0004 62.5895 34.3634C62.9 31.7265 62.4577 29.0555 61.3136 26.6594C60.1696 24.2634 58.3705 22.2402 56.1246 20.8239C53.8787 19.4076 51.2778 18.6561 48.6226 18.6563V18.6563Z" fill="#E6B431"/>
</svg>
